<?xml version="1.0" encoding="UTF-8" standalone="no"?>
<svg
   xmlns:dc="http://purl.org/dc/elements/1.1/"
   xmlns:cc="http://creativecommons.org/ns#"
   xmlns:rdf="http://www.w3.org/1999/02/22-rdf-syntax-ns#"
   xmlns:svg="http://www.w3.org/2000/svg"
   xmlns="http://www.w3.org/2000/svg"
   xmlns:sodipodi="http://sodipodi.sourceforge.net/DTD/sodipodi-0.dtd"
   xmlns:inkscape="http://www.inkscape.org/namespaces/inkscape"
   width="210mm"
   height="60mm"
   viewBox="0 0 210 60"
   version="1.1"
   id="svg857"
   inkscape:version="1.0.2 (394de47547, 2021-03-26)"
   sodipodi:docname="naira.svg">
  <defs
     id="defs851" />
  <sodipodi:namedview
     id="base"
     pagecolor="#ffffff"
     bordercolor="#666666"
     borderopacity="1.0"
     inkscape:pageopacity="0.0"
     inkscape:pageshadow="2"
     inkscape:zoom="0.49497475"
     inkscape:cx="14.882311"
     inkscape:cy="430.05843"
     inkscape:document-units="mm"
     inkscape:current-layer="layer1"
     inkscape:document-rotation="0"
     showgrid="false"
     inkscape:window-width="1853"
     inkscape:window-height="1025"
     inkscape:window-x="67"
     inkscape:window-y="27"
     inkscape:window-maximized="1" />
  <metadata
     id="metadata854">
    <rdf:RDF>
      <cc:Work
         rdf:about="">
        <dc:format>image/svg+xml</dc:format>
        <dc:type
           rdf:resource="http://purl.org/dc/dcmitype/StillImage" />
        <dc:title></dc:title>
      </cc:Work>
    </rdf:RDF>
  </metadata>
  <g
     inkscape:label="Capa 1"
     inkscape:groupmode="layer"
     id="layer1">
    <path
       style="fill:none;stroke:#000000;stroke-width:0.264583px;stroke-linecap:butt;stroke-linejoin:miter;stroke-opacity:1"
       d="M 18.619779,53.459012 17.460012,8.7247084 33.44614,8.3451054 44.57842,42.283822 43.799929,8.7385374 l 8.368858,-0.06607 0.128016,42.6329546 -14.966096,-0.11581 -8.857548,-29.12546 0.584221,29.49771 -10.225151,0.54932"
       id="path1422" />
    <path
       style="fill:none;stroke:#000000;stroke-width:0.264583px;stroke-linecap:butt;stroke-linejoin:miter;stroke-opacity:1"
       d="M 61.62133,51.460702 69.764496,8.8249584 81.6232,8.5367694 92.694229,49.380382 l -9.60185,-0.48705 -3.305816,-8.389 -6.913059,-0.22401 -1.933067,9.68243 z"
       id="path1426" />
    <path
       style="fill:none;stroke:#000000;stroke-width:0.264583px;stroke-linecap:butt;stroke-linejoin:miter;stroke-opacity:1"
       d="m 73.824766,31.253372 1.667372,-9.71158 2.055037,11.52879 z"
       id="path1428" />
    <path
       style="fill:none;stroke:#000000;stroke-width:0.264583px;stroke-linecap:butt;stroke-linejoin:miter;stroke-opacity:1"
       d="m 103.309,9.2576684 1.2948,42.1355836 9.25767,0.3505 -0.44262,-43.5701136 z"
       id="path1432" />
    <path
       style="fill:none;stroke:#000000;stroke-width:0.264583px;stroke-linecap:butt;stroke-linejoin:miter;stroke-opacity:1"
       d="m 123.76134,8.3572864 0.52883,42.3942256 8.46003,-0.53483 -0.68642,-16.45534 8.13881,6.60595 1.59618,11.04736 6.95136,-0.13604 -0.51474,-13.99093 -9.18225,-6.81163 8.36205,-1.56854 4.47204,-5.94945 -2.20824,-7.59537 -8.51838,-7.0234236 z"
       id="path1436" />
    <path
       style="fill:none;stroke:#000000;stroke-width:0.264583px;stroke-linecap:butt;stroke-linejoin:miter;stroke-opacity:1"
       d="m 132.56855,18.693382 -0.12732,6.62385 6.32999,1.02926 3.7759,-2.35982 0.0644,-3.43589 -1.32888,-3.42324 -4.08058,-1.62146 -4.14517,0.77839 z"
       id="path1438" />
    <path
       style="fill:none;stroke:#000000;stroke-width:0.264583px;stroke-linecap:butt;stroke-linejoin:miter;stroke-opacity:1"
       d="m 157.1188,50.457812 8.14316,-42.6357346 11.85871,-0.28819 11.07102,40.8436046 -9.60185,-0.48705 -3.30581,-8.389 -6.91306,-0.22401 -1.93307,9.68243 z"
       id="path1426-7" />
    <path
       style="fill:none;stroke:#000000;stroke-width:0.264583px;stroke-linecap:butt;stroke-linejoin:miter;stroke-opacity:1"
       d="m 169.34181,29.172872 1.66737,-9.71158 2.05504,11.52879 z"
       id="path1428-5" />
  </g>
</svg>
