<?xml version="1.0" encoding="UTF-8" standalone="no"?>
<svg
   xmlns:dc="http://purl.org/dc/elements/1.1/"
   xmlns:cc="http://creativecommons.org/ns#"
   xmlns:rdf="http://www.w3.org/1999/02/22-rdf-syntax-ns#"
   xmlns:svg="http://www.w3.org/2000/svg"
   xmlns="http://www.w3.org/2000/svg"
   xmlns:sodipodi="http://sodipodi.sourceforge.net/DTD/sodipodi-0.dtd"
   xmlns:inkscape="http://www.inkscape.org/namespaces/inkscape"
   version="1.1"
   id="svg885"
   width="66.000092mm"
   height="66.000008mm"
   viewBox="0 0 249.44916 249.44884"
   sodipodi:docname="Problema 1 juju.jpeg.svg"
   inkscape:export-filename="/home/auxiliarinformatica/Escritorio/problema 1 100.png"
   inkscape:export-xdpi="100"
   inkscape:export-ydpi="100"
   inkscape:version="1.0.2 (394de47547, 2021-03-26)">
  <metadata
     id="metadata891">
    <rdf:RDF>
      <cc:Work
         rdf:about="">
        <dc:format>image/svg+xml</dc:format>
        <dc:type
           rdf:resource="http://purl.org/dc/dcmitype/StillImage" />
        <dc:title></dc:title>
      </cc:Work>
    </rdf:RDF>
  </metadata>
  <defs
     id="defs889">
    <rect
       x="237.76059"
       y="126.60022"
       width="333.83087"
       height="103.78026"
       id="rect901" />
  </defs>
  <sodipodi:namedview
     pagecolor="#ffffff"
     bordercolor="#666666"
     borderopacity="1"
     objecttolerance="10"
     gridtolerance="10"
     guidetolerance="10"
     inkscape:pageopacity="0"
     inkscape:pageshadow="2"
     inkscape:window-width="1352"
     inkscape:window-height="1023"
     id="namedview887"
     showgrid="false"
     inkscape:document-units="mm"
     units="mm"
     fit-margin-top="3"
     fit-margin-left="3"
     fit-margin-bottom="3"
     fit-margin-right="3"
     inkscape:zoom="2"
     inkscape:cx="132.01826"
     inkscape:cy="136.07973"
     inkscape:window-x="67"
     inkscape:window-y="27"
     inkscape:window-maximized="0"
     inkscape:current-layer="g893" />
  <g
     inkscape:groupmode="layer"
     inkscape:label="Image"
     id="g893"
     transform="translate(11.338583,11.338583)">
    <path
       style="fill:#000000;stroke-width:0.251959"
       d="M 0,141.80609 V 56.840502 l 0.60065,0.53267 c 0.5595801,0.49624 0.6464301,0.48873 1.2697601,-0.10973 0.90894,-0.87266 1.18359,-2.47831 0.64421,-3.76624 -0.55569,-1.32689 -1.27961,-1.69472 -1.9630501,-0.99745 L 0,53.062482 V 26.539312 0.01614268 l 32.07874,0.0524 c 17.6433,0.0288 31.07162,0.15601 29.84071,0.28261 -1.23091,0.12659 -2.2939,0.37062 -2.3622,0.54229 -0.16129,0.40537992 -0.97986,1.05110992 -2.3919,1.88685992 -2.07394,1.22751 -3.12399,1.60291 -4.49741,1.60784 -1.45567,0.005 -2.6889,0.60496 -3.59033,1.74598 -0.66945,0.84739 -1.29756,1.04234 -3.0976,0.96141 -2.32214,-0.1044 -3.70172,1.4496505 -5.38405,6.0649194 -0.43724,1.19952 -0.7131,1.60884 -1.16696,1.73155 -0.77829,0.21044 -1.22942,-0.24232 -1.544,-1.54954 -0.14093,-0.58562 -0.47389,-1.47387 -0.73991,-1.97391 -0.26602,-0.50003 -0.48368,-1.06692 -0.48368,-1.259749 0,-0.1928299 -0.17008,-0.3505999 -0.37795,-0.3505999 -0.20787,0 -0.37795,-0.15117 -0.37795,-0.33593 0,-0.18476 0.20859,-0.33594 0.46355,-0.33594 0.52719,0 1.42621,-0.65194 1.42621,-1.03425 0,-0.13999 0.053,-0.4998305 0.11767,-0.7996505 0.0647,-0.29981 0.0435,-0.51493 -0.0472,-0.47804 -0.0907,0.0369 -0.29248,-0.0192 -0.44838,-0.12464 -1.28479,-0.86893 -1.57894,-0.92184 -2.05328,-0.36935 -0.26322,0.30659 -0.50433,0.42087 -0.5358,0.25396 -0.0315,-0.1669 -0.20589,-0.83256 -0.38761,-1.47923 -0.28758,-1.02339 -0.43171,-1.18892 -1.11211,-1.27721 -0.65938,-0.0856 -0.84421,0.0398 -1.1811,0.80115 -0.21967,0.49643 -0.39939,1.13486 -0.39939,1.41873 0,0.28387 -0.13093,0.77331 -0.29096,1.08765 -0.16003,0.31434 -0.31451,1.2332705 -0.34329,2.0420605 -0.0288,0.80879 -0.19548,1.9543189 -0.37045,2.5456289 -0.17498,0.59131 -0.31814,1.24314 -0.31814,1.44853 0,1.1185 -1.14393,4.40931 -2.16976,6.24189 -1.1475,2.04991 -2.07502,2.85839 -2.59728,2.26393 -0.70391,-0.80122 -1.55451,-1.08326 -2.02845,-0.67259 -0.49035,0.42489 -0.57234,1.08175 -0.31111,2.49262 0.11485,0.62033 0.0699,0.75585 -0.25074,0.75585 -0.43414,0 -0.53637,0.95038 -0.17193,1.59825 0.1657,0.29455 0.15597,0.52338 -0.0401,0.94337 -0.22292,0.47748 -0.20891,0.61943 0.10082,1.02204 0.19784,0.25715 0.42848,0.46755 0.51256,0.46755 0.30803,0 0.13978,0.82733 -0.35494,1.74527 -0.27929,0.51821 -0.42289,0.9422 -0.3191,0.9422 0.10378,0 0.38188,0.31993 0.61798,0.71096 l 0.42929,0.71096 -0.43776,0.38797 c -0.81789,0.72486 -0.85616,1.87712 -0.15637,4.70781 0.34707,1.40389 0.72196,2.55672 0.8331,2.56186 0.30379,0.014 1.16946,1.76579 1.15745,2.3422 -0.007,0.32237 -0.24096,0.54305 -0.65022,0.61256 -0.54295,0.0922 -0.62057,0.0199 -0.51314,-0.47768 0.18483,-0.85622 -0.93714,-2.61776 -1.47339,-2.31329 -0.21855,0.12409 -0.63227,0.3045 -0.91937,0.40091 -0.2871,0.0964 -0.56849,0.30904 -0.62532,0.4725 -0.16186,0.46553 -1.34682,0.34858 -2.09443,-0.2067 -0.37313,-0.27715 -0.96145,-0.5039 -1.30737,-0.5039 -0.39964,0 -0.69918,-0.21435 -0.82157,-0.58789 -0.10594,-0.32333 -0.19521,-0.46672 -0.19837,-0.31862 -0.012,0.56448 -0.95062,-1.57402 -0.95062,-2.16595 0,-0.34255 -0.19134,-0.96295 -0.4252,-1.37867 -0.23386,-0.41572 -0.40859,-0.84443 -0.38829,-0.9527 0.0203,-0.10827 -0.21355,-0.17037 -0.51968,-0.13799 -0.42958,0.0454 -0.5566,-0.0846 -0.5566,-0.56955 0,-0.34562 0.12756,-0.71542 0.28347,-0.82177 0.1559,-0.10635 0.28398,-0.51732 0.28462,-0.91327 5.7e-4,-0.39595 0.11943,-1.12285 0.26397,-1.61531 0.28741,-0.97927 0.13003,-3.22058 -0.36229,-5.15935 -0.32323,-1.27291 -1.61231,-3.70831 -2.1121,-3.99029 -0.20674,-0.11665 -0.49244,-0.59921 -0.63489,-1.07237 -0.60236,-2.00077 -1.50502,-1.80826 -1.49892,0.31968 0.0123,4.27507 -0.1443801,6.20223 -0.7237701,8.9045 -0.68118,3.17704 -0.71587,3.72027 -0.32366,5.06853 0.23481,0.80717 0.23763,0.98645 0.0179,1.13635 -0.42788,0.29187 -1.3493598,2.96349 -1.6123598,4.67466 -0.32734,2.12977 -0.16616,4.4428 0.38186,5.47977 0.23803,0.45041 0.5455198,0.81892 0.6832998,0.81892 0.40881,0 0.28578,1.04065 -0.22191,1.87706 -0.3214298,0.52954 -0.4724398,1.13537 -0.4724398,1.89533 0,0.82064 -0.15042,1.35164 -0.56693,2.00134 -0.9387,1.46424 -0.68744,3.46541 0.517,4.11772 0.35323,0.1913 0.4090798,0.41547 0.34055,1.36692 -0.0473,0.65717 0.0475,1.5993 0.2243198,2.22952 0.2999,1.06865 0.29598,1.10512 -0.1879698,1.74742 l -0.49426,0.65599 0.5855898,0.97241 c 0.33599,0.55794 0.70519,0.89084 0.86618,0.78102 0.4882,-0.33302 1.1722101,0.7432 1.1722101,1.84435 0,0.63339 0.13789,1.15029 0.37795,1.41679 0.61359,0.68119 0.45846,1.26578 -0.3359,1.26578 -1.1867701,0 -2.0555801,1.52596 -1.8197601,3.19621 0.15745,1.11517 1.07413,1.99644 1.5780201,1.51706 0.48033,-0.45697 1.27807,-0.44155 1.44127,0.0279 0.24366,0.70083 1.74798,1.6696 2.24692,1.44699 0.30922,-0.13797 0.48,-0.0743 0.48,0.17898 0,0.21624 0.21817,1.21295 0.48482,2.21492 0.69145,2.59823 0.84009,3.72683 0.71113,5.39938 -0.1338,1.73529 -0.3052,1.85343 -0.63508,0.43772 -0.13249,-0.56861 -0.46171,-1.28062 -0.73159,-1.58224 -0.26988,-0.30163 -0.70329,-0.91332 -0.96314,-1.35931 -0.44147,-0.75774 -0.56829,-0.79787 -1.93459,-0.61218 -1.6900301,0.22968 -2.4775901,0.8379 -2.8811001,2.22502 -0.5298498,1.8214 -0.3956098,2.57296 1.00427,5.62229 0.44497,0.96928 0.8740401,1.49298 1.4636401,1.78643 0.93475,0.46523 2.27166,0.21867 2.7208,-0.50179 0.31734,-0.50904 2.42062,-2.5288 2.63337,-2.5288 0.28945,0 1.39645,1.89604 2.04765,3.50718 0.78596,1.94453 1.0041,2.34517 1.98983,3.6544 1.14429,1.51984 1.61855,2.60913 1.7533,4.027035 0.17875,1.88076 0.76051,3.466673 1.66618,4.542143 1.23208,1.46307 1.7429,1.73783 3.23088,1.73783 1.54331,0 1.99081,0.19106 1.99081,0.85 0,0.63587 0.92962,2.50934 1.24515,2.50934 0.14666,0 0.26666,0.15245 0.26666,0.33878 0,0.22775 0.12387,0.22775 0.37796,0 0.20787,-0.18633 0.54803,-0.49123 0.7559,-0.67756 0.22625,-0.2028 0.37795,-0.21218 0.37795,-0.0233 0,0.17348 0.19134,0.38093 0.4252,0.461 0.35698,0.12223 0.34003,0.15292 -0.10564,0.19133 -0.60082,0.0518 -0.51584,0.71762 0.0916,0.71762 0.31762,0 0.36389,0.13844 0.25261,0.75585 -0.36979,2.05167 -0.33179,2.82635 0.17328,3.53259 0.46571,0.6512 0.53618,0.66134 1.22989,0.17694 0.71637,-0.50023 0.74985,-0.49081 1.26324,0.35541 l 0.52736,0.86927 0.57517,-0.79517 c 0.51257,-0.70861 0.56855,-0.95965 0.51429,-2.30631 -0.0335,-0.83253 0.0301,-1.61112 0.14174,-1.73376 0.11144,-0.12245 0.20261,-0.56736 0.20261,-0.98871 0,-0.83838 -0.64652,-1.5458 -1.41271,-1.5458 -0.6948,0 -1.03742,-0.81936 -0.91292,-2.1832 0.1254,-1.37367 -0.17189,-2.18991 -0.707,-1.94115 -0.47229,0.21954 -0.65869,1.48227 -0.36353,2.46265 0.18764,0.62325 0.17417,0.8045 -0.0784,1.05579 -0.16772,0.16685 -0.30625,0.5604 -0.30784,0.87455 -0.002,0.43358 -0.0408,0.46503 -0.1601,0.13052 -0.0876,-0.24558 -0.40007,-0.39431 -0.70577,-0.33594 -0.5155,0.0984 -0.55225,0.0238 -0.60976,-1.23899 -0.0656,-1.43984 -0.40808,-2.32563 -1.17009,-3.02612 -0.48583,-0.44659 -1.4316,-0.32333 -1.6173,0.21079 -0.13783,0.39643 -0.83645,0.37949 -0.83645,-0.0203 0,-0.17386 0.085,-0.40954 0.18898,-0.52373 0.10394,-0.11419 0.18898,-0.80338 0.18898,-1.53153 0,-0.72815 0.0829,-1.323913 0.18425,-1.323913 0.10221,0 0.1358,-0.43059 0.0754,-0.96706 -0.13325,-1.184315 0.0928,-1.494115 0.59277,-0.81223 0.25993,0.35452 0.30301,0.56121 0.13965,0.67007 -0.12992,0.0866 -0.23622,0.39008 -0.23622,0.67445 0,0.44298 0.045,0.451 0.3142,0.056 0.24495,-0.35944 0.33172,-0.36851 0.3937,-0.0411 0.10336,0.54594 1.74127,0.53778 2.14312,-0.0107 0.452,-0.6169 0.73953,-1.754735 0.73953,-2.926485 0,-0.61426 0.0784,-0.96359 0.18898,-0.84209 0.10394,0.11419 0.18898,0.0475 0.18898,-0.14814 0,-0.19566 -0.085,-0.35576 -0.18898,-0.35576 -0.27249,0 -0.2331,-0.92567 0.0464,-1.09131 0.12948,-0.0767 0.23578,-0.42945 0.23622,-0.78384 10e-4,-0.88366 0.79961,-1.05911 1.14398,-0.25137 0.24411,0.57256 0.26254,0.57441 0.26814,0.0269 0.008,-0.75942 0.41466,-0.74473 1.28913,0.0466 0.38562,0.34894 1.075,0.83301 1.53196,1.07572 0.50395,0.26766 0.866,0.68034 0.92022,1.0489 0.087,0.59166 0.84491,1.16079 1.31981,0.99114 0.16148,-0.0577 0.23622,0.40202 0.23622,1.45288 0,1.280215 0.0711,1.588055 0.4252,1.841075 0.23386,0.16709 0.35843,0.31339 0.27682,0.3251 -0.0816,0.0117 -0.0584,0.32017 0.0516,0.685473 0.15882,0.52752 0.12131,0.80398 -0.18232,1.34373 -0.21026,0.37376 -0.38229,0.9819 -0.38229,1.35143 0,0.36953 -0.0908,0.67187 -0.20171,0.67187 -0.21868,0 -0.0617,-1.28931 0.22295,-1.83084 0.0923,-0.17553 0.16774,-0.72974 0.16774,-1.2316 0,-0.686713 -0.13752,-1.020663 -0.55585,-1.349843 -0.4086,-0.32151 -0.50459,-0.54718 -0.36235,-0.85187 0.28571,-0.611975 0.007,-1.790475 -0.4233,-1.790475 -0.46893,0 -0.6749,0.90612 -0.39019,1.716545 0.18631,0.53032 0.13608,0.69478 -0.34813,1.1399 -0.48448,0.44536 -0.56585,0.712155 -0.56585,1.855273 0,0.73431 0.0638,1.33847 0.14173,1.34258 0.0779,0.004 0.35214,0.29487 0.60931,0.64615 0.43779,0.598 0.44775,0.67778 0.15646,1.25229 -0.6158,1.21448 -0.61078,2.29035 0.016,3.43017 0.31656,0.57567 0.65488,1.04667 0.75183,1.04667 0.0969,0 0.36314,-0.64248 0.59154,-1.42772 0.56768,-1.95166 0.92739,-2.60349 1.43673,-2.60349 0.46858,0 1.02079,-1.13079 1.02079,-2.09036 0,-0.32841 0.0747,-0.59712 0.16605,-0.59712 0.0913,0 0.27083,-0.44971 0.39891,-0.99936 0.39792,-1.707723 0.83549,-2.359983 1.58319,-2.359983 0.37757,0 0.68649,0.0831 0.68649,0.18465 0,0.53564 -0.62084,2.193523 -1.04192,2.782323 -0.29951,0.4188 -0.40499,0.75996 -0.27807,0.8994 0.13931,0.15305 0.14333,0.35564 0.0126,0.63563 -0.1393,0.29837 0.0135,0.71298 0.55775,1.51313 0.49413,0.7265 0.74962,1.37772 0.74962,1.91066 0,0.44467 0.0783,0.8085 0.17396,0.8085 0.0957,0 0.22743,0.41572 0.29278,0.92382 0.21885,1.70157 1.13723,3.10739 2.02997,3.10739 0.61253,0 1.29313,0.9051 1.15651,1.53799 -0.12301,0.56985 0.65301,2.24113 0.90969,1.95914 0.0888,-0.0976 0.1615,-0.0173 0.1615,0.17832 0,0.47544 -0.62478,0.45447 -0.89738,-0.0301 -0.2567,-0.45633 -1.18136,0.45652 -1.18136,1.16626 0,1.22205 0.95684,1.61615 1.57167,0.64733 0.36193,-0.57031 0.37031,-0.56114 0.28045,0.30674 -0.0781,0.75379 -0.0155,0.92084 0.39722,1.06109 0.26942,0.0916 0.53966,0.0232 0.60052,-0.15183 0.0609,-0.17507 0.35539,-0.35022 0.65449,-0.38923 0.69282,-0.0904 0.8317,0.79222 0.28793,1.82979 -0.42463,0.81022 -0.51975,2.58585 -0.19612,3.66081 0.27285,0.90631 1.27325,1.75352 1.79546,1.52053 0.24064,-0.10736 0.70541,-0.59592 1.03284,-1.08568 0.5613,-0.83959 0.58811,-0.98356 0.46927,-2.5196 -0.14154,-1.82941 0.043,-2.07876 0.52204,-0.70531 0.18876,0.54119 0.32549,0.71511 0.33013,0.41991 0.006,-0.36144 0.0487,-0.38986 0.15216,-0.10053 0.11079,0.30984 0.55919,0.26939 1.93411,-0.1745 1.77821,-0.57409 2.64028,-1.21189 2.64028,-1.95342 0,-0.21293 0.12312,-0.47113 0.27359,-0.57377 0.15047,-0.10265 0.41445,-0.67088 0.58662,-1.26275 0.28658,-0.98513 0.28742,-1.10161 0.01,-1.37771 -0.16674,-0.16587 -0.30317,-0.61088 -0.30317,-0.98889 0,-0.37802 -0.1738,-1.12119 -0.38622,-1.65149 -0.61948,-1.54654 -1.39267,-7.36992 -0.97853,-7.36992 0.0936,0 0.27185,-0.39649 0.39606,-0.88109 0.18455,-0.72001 0.17202,-1.02711 -0.0685,-1.67967 -0.202,-0.54804 -0.22381,-0.79858 -0.0695,-0.79858 0.12366,0 0.17523,-0.0882 0.1146,-0.19596 -0.0606,-0.10778 0.0315,-0.44791 0.20466,-0.75585 0.29389,-0.52255 0.3338,-0.49268 0.59842,0.44791 0.19107,0.67916 0.69682,1.39123 1.55088,2.18357 0.69704,0.64668 1.32803,1.28964 1.40219,1.42882 0.0742,0.13917 0.15595,1.12178 0.18175,2.18357 0.0467,1.92069 0.1279,2.79855 0.35149,3.79837 0.0652,0.29173 -0.0769,1.03645 -0.32056,1.67967 -0.55375,1.46172 -1.08875,3.47198 -1.08097,4.06177 0.009,0.66288 0.87248,2.30077 1.21331,2.30077 0.16089,0 0.29253,0.11481 0.29253,0.25513 0,0.14032 0.1711,0.44508 0.38023,0.67725 0.45315,0.50306 1.32055,0.1977 1.32055,-0.46489 0,-0.25712 0.0993,-0.42969 0.22062,-0.3835 0.12133,0.0462 0.29746,-0.44512 0.3914,-1.09179 0.46927,-3.23044 0.61821,-3.91067 0.98004,-4.47595 0.28521,-0.44556 0.32558,-0.66068 0.148,-0.78857 -0.1698,-0.12229 -0.0946,-0.40439 0.24693,-0.92605 0.44284,-0.67643 0.46132,-0.79415 0.18801,-1.19738 -0.24126,-0.35593 -0.25309,-0.50467 -0.058,-0.7288 0.20063,-0.23044 0.20026,-0.33317 -0.002,-0.56542 -0.16078,-0.18461 -0.203,-0.59669 -0.1208,-1.17894 0.16507,-1.16913 0.41199,-1.40901 0.80509,-0.78215 0.44102,0.7033 1.54459,1.01399 2.14951,0.60515 0.28142,-0.19021 0.72265,-1.00404 0.99928,-1.84314 0.42395,-1.28598 0.60786,-1.53633 1.27601,-1.737 0.71212,-0.21387 0.82331,-0.14521 1.26646,0.78206 0.48592,1.01675 1.3362,1.74237 1.3362,1.1403 0,-0.37046 0.90611,-0.73903 1.24631,-0.50697 0.12699,0.0866 0.33184,0.59072 0.45521,1.12021 0.12338,0.52949 0.55636,1.58318 0.96219,2.34154 0.40582,0.75837 0.73786,1.58699 0.73786,1.84138 0,1.05187 0.66206,2.42639 1.44652,3.00316 0.45166,0.33208 0.8212,0.73998 0.8212,0.90644 0,0.16646 0.1063,0.3084 0.23622,0.31541 0.2477,0.0134 1.27559,2.44301 1.27559,3.01514 0,0.1823 0.50828,0.33145 1.1295,0.33145 1.02533,0 1.16027,0.0852 1.46309,0.92382 0.46171,1.27867 0.52283,1.4195 1.27556,2.93942 0.36601,0.73906 0.66588,1.43646 0.66638,1.54979 5.7e-4,0.11332 -0.53059,0.40111 -1.1802,0.63954 -1.68738,0.61931 -1.79812,0.9227 -1.67775,4.59631 0.0267,0.81588 1.01374,2.66409 1.67587,3.13812 0.60837,0.43554 1.08451,0.005 1.6591,-1.50193 0.66512,-1.7438 0.77978,-3.19089 0.39004,-4.92245 -0.28818,-1.28031 -0.28886,-1.38062 -0.008,-1.18907 0.16867,0.11506 0.5657,0.2092 0.8823,0.2092 0.56572,0 0.57354,0.0231 0.45475,1.34373 -0.1089,1.21061 -0.0814,1.34374 0.27739,1.34374 0.52383,0 1.49596,-1.03412 1.49596,-1.59134 0,-0.24126 -0.2126,-0.61086 -0.47244,-0.82132 -0.60292,-0.48835 -0.59345,-0.63374 0.0945,-1.45058 0.31121,-0.36953 0.56879,-0.89863 0.5724,-1.17577 0.008,-0.65308 0.56146,-1.98459 0.56146,-1.35196 0,0.25087 0.0546,0.35901 0.12141,0.2403 0.0668,-0.11871 0.0342,-0.40846 -0.0725,-0.64388 -0.10667,-0.23542 -0.17283,-1.6374 -0.14701,-3.11551 0.0626,-3.5866 0.0345,-3.37071 0.57319,-4.40394 0.26129,-0.50118 0.52703,-1.48883 0.59054,-2.19477 0.0635,-0.70594 0.1856,-1.20645 0.27134,-1.11226 0.0857,0.0942 0.24766,-0.13351 0.35981,-0.50604 0.11215,-0.37252 0.41405,-0.77106 0.6709,-0.88566 0.32969,-0.1471 0.46698,-0.43872 0.46698,-0.99194 0,-0.43098 0.0806,-0.87214 0.1791,-0.98036 0.0994,-0.10919 0.14408,0.12648 0.10042,0.52953 -0.0433,0.39946 -0.0176,0.61766 0.0571,0.48488 0.14173,-0.25196 0.15835,-0.37291 0.22159,-1.61315 0.0212,-0.41572 0.0826,-0.56058 0.13649,-0.32191 0.0752,0.33322 0.15947,0.34317 0.36303,0.0428 0.21024,-0.31017 0.26509,-0.26981 0.26509,0.19508 0,0.4589 0.0563,0.50304 0.25951,0.2033 0.14273,-0.21057 0.40346,-0.28467 0.57939,-0.16466 0.34866,0.23785 1.617786,-1.67963 1.617786,-2.44426 0,-0.2344 0.19134,-0.60156 0.4252,-0.81591 0.23387,-0.21436 0.612864,-0.69339 0.842224,-1.06452 0.30146,-0.4878 0.70581,-0.68751 1.45925,-0.72072 1.26441,-0.0557 1.63949,-0.70507 1.571,-2.719713 -0.0427,-1.256445 -0.015,-1.336515 0.42675,-1.232345 0.59481,0.14025 0.88537,0.645195 1.04742,1.820225 0.0833,0.60434 0.0521,0.923823 -0.0903,0.923823 -0.11976,0 -0.19276,0.24509 -0.16222,0.54464 0.0392,0.38431 -0.11034,0.57779 -0.50792,0.65724 -0.76789,0.15347 -1.09492,1.02351 -0.96117,2.5571 0.0607,0.69637 0.0238,1.33213 -0.0844,1.45093 -0.10585,0.1163 -0.13978,0.36299 -0.0754,0.54819 0.0757,0.21772 -0.46528,0.30432 -1.53066,0.24502 -1.434104,-0.0798 -1.681644,-0.009 -1.909274,0.5441 -0.14384,0.3497 -0.26153,0.83367 -0.26153,1.0755 0,0.51482 0.67097,1.78343 0.943254,1.78343 0.10303,0 0.43113,0.45351 0.72912,1.00781 0.29798,0.55429 0.59082,1.0078 0.65076,1.0078 0.0599,0 0.34836,0.17404 0.64095,0.38676 0.2926,0.21272 0.73487,0.35038 0.98284,0.30591 0.47909,-0.0859 0.76986,0.44221 0.7746,1.40692 0.002,0.34559 -0.1383,0.58788 -0.3397,0.58788 -0.35052,0 -1.14279,1.3166 -1.51612,2.51951 -0.11469,0.36952 -0.21112,0.50386 -0.21428,0.29853 -0.009,-0.55477 -0.90579,-0.15091 -1.03936,0.46783 -0.0628,0.29078 0.0179,0.76344 0.17934,1.05037 0.23991,0.42648 0.3614,0.44625 0.66579,0.10832 0.50316,-0.55859 0.62991,-0.52006 0.48577,0.14768 -0.0666,0.30856 -0.0119,0.698 0.12151,0.86541 0.1877,0.23547 0.19036,0.34224 0.0117,0.47161 -0.1556,0.11269 -0.0879,0.40558 0.20748,0.89824 0.24109,0.40206 0.39494,0.95777 0.34188,1.23492 -0.079,0.4126 -0.045,0.42834 0.18786,0.0869 0.37627,-0.55181 0.56987,-0.16509 0.32483,0.64884 -0.46854,1.55629 0.27883,3.29547 1.41615,3.29547 0.85286,0 1.39099,-1.89594 0.95931,-3.37987 -0.24965,-0.85818 -0.25187,-1.0837 -0.0172,-1.74237 0.14826,-0.41614 0.32596,-1.23806 0.3949,-1.82651 0.10062,-0.85885 0.24407,-1.115 0.72721,-1.29854 0.33103,-0.12576 0.70976,-0.38322 0.84163,-0.57215 0.1694,-0.24269 0.34015,-0.18201 0.58181,0.20676 0.59015,0.9494 1.53454,0.66386 1.78426,-0.53948 0.10099,-0.48662 0.19863,-0.52344 0.57649,-0.21739 0.5534,0.44822 1.17255,-0.0331 1.35468,-1.0532 0.11961,-0.66995 -0.51027,-3.47905 -0.86832,-3.87241 -0.37858,-0.41594 -0.13904,-1.09039 0.44155,-1.24324 0.73636,-0.19387 1.08662,3.3e-4 1.08662,0.60263 0,0.24493 0.16988,0.54117 0.37751,0.65832 0.20778,0.11724 0.42525,0.61828 0.4837,1.11443 0.16312,1.38478 0.36306,1.88184 0.89174,2.21687 0.64872,0.4111 1.38461,-0.44736 1.55322,-1.81188 0.0743,-0.60157 0.39622,-1.38896 0.7813,-1.91107 0.43262,-0.58658 0.61639,-1.06637 0.54144,-1.41356 -0.0624,-0.28908 -0.0575,-0.42616 0.0108,-0.30462 0.109,0.19377 1.02952,-1.2872 1.02952,-1.65633 0,-0.60699 -0.46743,-1.44151 -0.8098,-1.44571 -0.33951,-0.004 -0.36501,-0.0666 -0.13506,-0.33079 0.24225,-0.2783 0.23537,-0.3264 -0.0472,-0.33079 -0.18189,-0.003 -0.33071,-0.15632 -0.33071,-0.34108 0,-0.18477 -0.13259,-0.33594 -0.29462,-0.33594 -0.16204,0 -0.24655,-0.13826 -0.1878,-0.30724 0.0588,-0.16898 0.0232,-0.35794 -0.079,-0.41992 -0.10224,-0.062 -0.23734,-0.57177 -0.30023,-1.13288 -0.096,-0.85645 -0.037,-1.09374 0.36724,-1.47835 0.26485,-0.25198 0.43563,-0.62432 0.3795,-0.82743 -0.0561,-0.20311 0.0178,-0.11 0.1642,0.20691 0.19766,0.42773 0.32119,0.47855 0.47944,0.19725 0.15825,-0.28131 0.26247,-0.14846 0.4045,0.51559 0.10522,0.49199 0.27629,0.89454 0.38011,0.89454 0.10384,0 0.31912,0.44795 0.47839,0.99545 0.34617,1.19002 1.25571,1.70892 2.63641,1.50412 0.92037,-0.13653 1.3283,-0.62241 1.09795,-1.30776 -0.0651,-0.19359 0.0147,-0.16041 0.17751,0.0737 0.16267,0.23415 0.44806,0.32184 0.6342,0.19487 0.23235,-0.1585 0.29558,-0.10767 0.20177,0.16217 -0.082,0.23588 -0.0189,0.39302 0.15799,0.39302 0.16203,0 0.29461,0.15117 0.29461,0.33593 0,0.18477 0.16812,0.33594 0.37359,0.33594 0.44343,0 0.89581,1.12071 1.06717,2.6438 0.0694,0.61722 0.32271,1.32911 0.57912,1.62776 0.39528,0.46041 0.59849,0.47443 1.53286,0.10574 1.63792,-0.64629 2.72392,-1.45727 2.82525,-2.10975 0.0502,-0.32333 0.19983,-0.58788 0.33249,-0.58788 0.28206,0 0.47063,-0.74009 0.47063,-1.84712 0,-0.4314 0.0902,-0.8378 0.20037,-0.9031 0.11021,-0.0653 0.208,-0.59573 0.21734,-1.17873 0.0164,-1.02771 0.0262,-1.03966 0.32096,-0.3926 0.1892,0.41535 0.42276,0.58638 0.61844,0.45289 0.61894,-0.42221 0.61678,-1.99617 -0.003,-2.28803 -0.28479,-0.13408 -0.28383,-0.15182 0.0102,-0.18709 0.20716,-0.0249 0.28539,-0.22146 0.216,-0.54287 -0.0598,-0.27715 -0.01,-0.5039 0.11157,-0.5039 0.12119,0 0.17534,-0.129478 0.12033,-0.287733 -0.055,-0.15824 0.23712,-0.76937 0.6492,-1.35806 0.73811,-1.054415 1.36096,-2.964445 1.6033,-4.916585 0.26853,-2.16323 0.79003,-4.40489 1.20535,-5.18121 0.51192,-0.95687 1.72223,-5.87176 1.72223,-6.99367 0,-1.15883 0.88001,-5.53192 1.1518,-5.72366 0.0824,-0.0581 0.10255,-0.3246 0.0448,-0.59216 -0.0577,-0.26757 0.002,-0.71352 0.13055,-0.99101 0.12954,-0.27749 0.27804,-1.56051 0.32999,-2.85116 0.052,-1.29065 0.13113,-2.34663 0.17597,-2.34663 0.0448,0 0.24923,0.15954 0.45419,0.35454 0.90746,0.86334 1.80308,-0.9729 1.23124,-2.52436 -0.17305,-0.46947 -0.44024,-0.85359 -0.59375,-0.85359 -0.48304,0 -0.29531,-0.47356 0.54809,-1.38251 1.57689,-1.69944 2.03531,-5.105 0.96384,-7.16021 -0.26217,-0.50288 -0.46819,-1.30434 -0.46819,-1.82136 0,-0.50782 -0.0935,-1.08959 -0.20788,-1.29283 -0.11433,-0.20324 -0.20787,-0.8915 -0.20787,-1.52947 0,-1.20595 -0.92876,-4.46761 -1.15676,-4.06232 -0.0706,0.12542 -0.12828,0.0517 -0.12828,-0.16388 0,-0.21556 -0.12756,-0.39193 -0.28346,-0.39193 -0.1575,0 -0.28347,-0.29861 -0.28347,-0.67187 0,-0.36952 0.1063,-0.67418 0.23622,-0.67701 0.15748,-0.003 0.14173,-0.11369 -0.0472,-0.33079 -0.15591,-0.17911 -0.18896,-0.32796 -0.0735,-0.33079 0.11892,-0.003 0.17271,-0.35205 0.12401,-0.80499 -0.0683,-0.63506 0.19011,-1.30853 1.25431,-3.26903 1.57408,-2.89982 1.86561,-4.06217 1.45597,-5.80502 -0.77093,-3.27997 -2.95943,-3.14977 -3.94749,0.23484 -0.69439,2.37859 -1.17199,1.31919 -0.99379,-2.20441 0.0833,-1.6471 0.0198,-2.58268 -0.28006,-4.1293 -0.34027,-1.75471 -0.36042,-2.20549 -0.16454,-3.67938 0.24806,-1.86653 0.40843,-2.17093 1.14774,-2.17843 0.95913,-0.01 0.87372,-2.17517 -0.0955,-2.4205 -0.35588,-0.0901 -0.4149,-0.33114 -0.43676,-1.78382 -0.0291,-1.93435 -0.69764,-6.66713 -1.08746,-7.6986 -0.41441,-1.09649 -1.44205,-2.8491089 -2.0367,-3.4735489 -0.29784,-0.31278 -0.64329,-0.97729 -0.76764,-1.4767005 -0.12436,-0.49941 -0.29,-0.83783 -0.36809,-0.75203 -0.0781,0.0858 -0.30986,-0.14241 -0.51503,-0.50713 -0.25814,-0.45892 -0.40575,-0.54028 -0.47932,-0.26421 -0.0799,0.29975 -0.13402,0.29284 -0.21782,-0.0278 -0.0775,-0.2965 -0.22824,-0.16295 -0.49398,0.43761 -0.21037,0.47539 -0.42542,0.788 -0.47792,0.69468 -0.0525,-0.0933 0.0423,-0.41441 0.21052,-0.71355 0.37102,-0.65953 0.37789,-0.86449 0.0553,-1.64863 -0.3613,-0.87837 -1.07222,-0.41726 -1.07222,0.69546 0,0.91538 -0.43375,1.91261 -0.66682,1.53306 -0.0797,-0.12978 -0.0978,0.10418 -0.0402,0.51989 0.0576,0.4157205 0.041,0.7558605 -0.0369,0.7558605 -0.0779,0 -0.32977,0.65042 -0.55977,1.44538 -0.24047,0.8311689 -0.67982,1.6958589 -1.03387,2.0347989 -0.33863,0.32418 -1.0872,1.37443 -1.6635,2.33388 -0.57629,0.95945 -1.22992,2.00752 -1.45253,2.32905 -0.55627,0.8035 -0.50689,1.74001 0.14056,2.66641 0.29991,0.42911 0.77378,1.61164 1.05307,2.62784 0.31359,1.14098 0.77707,2.18129 1.21187,2.72 0.77238,0.95701 2.10317,5.27906 2.10317,6.83056 0,0.49389 0.16031,1.03568 0.37796,1.27729 0.56373,0.62585 0.46055,1.50008 -0.33071,2.8018 -0.66904,1.10062 -0.76269,1.1542 -1.67445,0.95782 -1.18172,-0.25453 -1.99451,0.385 -2.33244,1.83527 -0.4858,2.08488 0.24754,4.06924 1.50382,4.06924 0.51375,0 2.01301,-1.08522 2.26685,-1.64081 0.052,-0.11376 0.22204,-0.25156 0.37795,-0.30624 0.1559,-0.0547 0.5743,-0.33852 0.92978,-0.63076 0.60359,-0.49623 0.66293,-0.49097 0.89762,0.0796 0.19956,0.48517 0.20268,0.66584 0.0151,0.87757 -0.12992,0.14664 -0.16944,0.26893 -0.0878,0.27176 0.0816,0.003 0.0603,0.29789 -0.0475,0.65568 -0.17414,0.57847 -0.25143,1.27355 -0.48595,4.37015 -0.0342,0.45184 -0.24476,1.0663 -0.46789,1.36548 -0.33889,0.45441 -0.38407,0.74854 -0.2745,1.78684 0.1196,1.13326 0.0626,1.37512 -0.64628,2.74221 -0.4276,0.82464 -0.77745,1.7052 -0.77745,1.95682 0,0.25162 -0.21867,0.63458 -0.4859,0.85104 -0.58936,0.47734 -0.54775,1.37969 0.0897,1.94459 0.24796,0.21974 0.61342,0.85602 0.81213,1.41395 0.29654,0.83254 0.32931,1.24425 0.18283,2.29637 -0.14239,1.02266 -0.16804,3.30676 -0.0505,4.49398 0.0102,0.10373 0.19207,0.51945 0.40399,0.92381 0.24773,0.47267 0.29834,0.73705 0.14173,0.74036 -0.14944,0.003 -0.17055,0.10052 -0.0546,0.25195 0.10393,0.13574 0.20392,0.39798 0.22221,0.58274 0.0183,0.18477 0.089,0.59027 0.15704,0.90112 0.0883,0.40303 -0.0297,0.70656 -0.41119,1.05801 -0.29426,0.27106 -0.76647,0.95546 -1.04937,1.52089 -0.2829,0.56544 -0.77187,1.26479 -1.08661,1.55411 -0.82366,0.75714 -0.73461,2.14783 0.19045,2.97469 0.2397,0.21424 0.46594,0.55226 0.50279,0.75116 0.1823,0.9842 -2.01867,3.4556 -2.55385,2.86763 -0.1223,-0.13438 -0.31177,-1.52062 -0.42102,-3.08053 -0.10926,-1.55991 -0.29951,-3.66763 -0.42279,-4.68384 -0.12329,-1.0162 -0.20124,-1.97692 -0.17322,-2.13494 0.028,-0.15802 -0.0432,-0.48899 -0.15829,-0.73547 -0.11508,-0.24649 -0.19028,-0.87305 -0.16711,-1.39236 0.0807,-1.80803 -0.008,-2.83889 -0.2241,-2.60163 -0.14079,0.15468 -0.16753,-0.004 -0.0818,-0.48408 0.0704,-0.39431 0.0451,-0.71393 -0.0565,-0.71393 -0.10121,0 -0.13942,-0.30315 -0.0849,-0.67366 0.12485,-0.84866 -0.24698,-1.66979 -0.7718,-1.70441 -0.22112,-0.0146 -0.29575,-0.10276 -0.16583,-0.19596 0.12992,-0.0932 0.23622,-0.32418 0.23622,-0.51332 0,-0.18913 -0.11338,-0.26653 -0.25198,-0.172 -0.13858,0.0945 -0.26158,-0.003 -0.27333,-0.21601 -0.0117,-0.21334 -0.0794,-1.02717 -0.15034,-1.80852 -0.0902,-0.99359 -0.0473,-1.64997 0.14276,-2.18357 0.51745,-1.45294 0.88526,-3.79434 0.87626,-5.578 -0.008,-1.56221 0.0665,-1.93018 0.58075,-2.87335 0.55273,-1.01374 0.58756,-1.22483 0.55445,-3.36037 -0.0314,-2.02567 -0.0947,-2.37803 -0.57012,-3.17347 -0.74561,-1.24746 -1.59305,-4.52436 -2.02842,-7.84342 -0.2025,-1.54388 -0.46085,-3.24034 -0.57411,-3.76991 -0.18236,-0.85257 -0.4573,-8.94848 -0.40374,-11.88784 0.0111,-0.60863 -0.11299,-1.56431 -0.27572,-2.12372 -0.2352,-0.80856 -0.24858,-1.11842 -0.0652,-1.51113 0.37208,-0.79696 -0.0294,-1.08031 -1.15132,-0.81257 -0.8444,0.20151 -1.08211,0.14714 -1.26958,-0.2904 -0.12688,-0.29608 -0.23442,-0.6895 -0.23901,-0.87426 -0.0129,-0.51728 -1.18007,-1.7451289 -2.10346,-2.2127689 -0.45613,-0.231 -0.89575,-0.52009 -0.9769,-0.64244 -0.0811,-0.12234 0.0368,-1.0788805 0.26219,-2.1256505 0.39456,-1.83287 0.39802,-1.95762 0.0935,-3.37507 -0.36376,-1.69319 -0.76626,-2.43667992 -1.43648,-2.65351992 -0.25984,-0.0841 1.70031,-0.17343 4.3559,-0.1986 3.53318,-0.0334 4.88918,0.0624 5.05512,0.35738 0.17637,0.31354 0.27716,0.31354 0.45355,0 0.28968,-0.51498 5.14756,-0.57772 4.96902,-0.0642 -0.1791,0.51516 0.0476,1.46184992 0.45962,1.91924992 0.72528,0.80517 2.03099,-0.74059 1.62121,-1.91924992 -0.0791,-0.22762 15.58825,-0.33894 47.70435,-0.33894 h 47.82217 V 113.39392 226.77168 h -40.34645 c -35.99021,0 -40.34646,-0.0552 -40.34646,-0.5111 0,-0.28111 -0.2226,-0.69139 -0.49465,-0.91174 -0.44364,-0.35934 -0.54013,-0.30663 -0.93583,0.5111 l -0.44116,0.91174 -39.36339,-0.0265 c -21.64988,-0.0146 -39.23585,-0.1147 -39.07994,-0.22247 1.21513,-0.83996 0.85175,-4.17385 -0.50716,-4.65297 -1.46692,-0.51721 -2.21737,3.77831 -0.81568,4.66883 0.15591,0.099 -1.987,0.19202 -4.76201,0.20661 l -5.04547,0.0265 0.2923,-1.2436 c 0.23494,-0.99958 0.25092,-1.48911 0.0814,-2.49475 -0.24393,-1.44729 -1.17073,-2.98033 -1.80176,-2.98033 -1.25945,0 -2.37079,1.81348 -2.37079,3.86864 0,0.95026 0.30892,2.19704 0.64247,2.59295 0.11436,0.13574 -11.42121,0.24912 -25.63459,0.25195 l -25.84252,0.005 z m 114.67085,82.19477 c 0.0312,-0.27884 -0.0854,-0.75963 -0.25916,-1.06843 -0.39619,-0.7043 -0.80687,-0.57272 -1.15886,0.3713 -0.24593,0.65955 -0.23289,0.80191 0.133,1.45234 0.3659,0.65044 0.44597,0.67362 0.81701,0.23644 0.22624,-0.26657 0.43685,-0.71281 0.46801,-0.99165 z m -30.42465,0.20665 c 0.0734,-0.90951 -0.42753,-1.26469 -0.81419,-0.57734 -0.23242,0.41316 -0.24737,0.62821 -0.0701,1.00793 0.31232,0.66898 0.81536,0.42403 0.88428,-0.43059 z m 35.59718,-1.01521 c 0.75744,-1.21851 0.15107,-3.81117 -0.89134,-3.81117 -0.48399,0 -1.40873,1.32759 -1.40873,2.02242 0,0.51774 0.39143,1.78966 0.64247,2.08763 0.3705,0.43977 1.30297,0.27164 1.6576,-0.29888 z m -34.04811,-1.29167 c 0,-0.27714 -0.12756,-0.5039 -0.28347,-0.5039 -0.1559,0 -0.28346,0.22676 -0.28346,0.5039 0,0.27715 0.12756,0.50391 0.28346,0.50391 0.15591,0 0.28347,-0.22676 0.28347,-0.50391 z m 83.3386,-2.19057 c -0.40305,-0.45306 -0.56234,-0.40518 -0.69489,0.20887 -0.16811,0.77874 0.34641,1.23313 0.69489,0.61367 0.25196,-0.44791 0.25196,-0.53931 0,-0.82254 z m -97.62635,0.25895 c 0.26904,-0.76381 -0.0501,-1.72213 -0.62384,-1.87342 -0.78625,-0.20732 -1.26872,1.27855 -0.72753,2.24059 0.31848,0.56615 1.09715,0.35459 1.35137,-0.36717 z M 60.22498,219.1675 c 0.15633,-0.7242 -0.17939,-1.63401 -0.60294,-1.63401 -0.18522,0 -0.42334,0.244 -0.52916,0.54222 -0.28871,0.81362 -0.0218,1.64135 0.52916,1.64135 0.27405,0 0.53581,-0.23858 0.60294,-0.54956 z m 37.55679,-0.6502 c 0.374096,-0.66502 0.381116,-1.61721 0.0159,-2.15603 -0.3774,-0.55679 -0.80687,-0.21436 -1.08318,0.86366 -0.19575,0.76375 -0.1775,0.95054 0.13225,1.35316 0.45677,0.59374 0.571,0.58632 0.93503,-0.0608 z m 22.87965,-0.31194 c 0,-1.00046 -0.73768,-0.90051 -0.81828,0.11087 -0.0519,0.65131 0.0115,0.76412 0.37795,0.67187 0.29356,-0.0739 0.44033,-0.33483 0.44033,-0.78274 z m -30.27122,-0.295 c 0.11237,-0.52054 -0.20461,-1.2167 -0.55399,-1.2167 -0.26991,0 -0.43159,0.66159 -0.30785,1.25975 0.11707,0.56587 0.73708,0.5349 0.86184,-0.043 z m 35.24741,-0.33243 c 0.0921,-0.84992 -0.22791,-1.33226 -0.70521,-1.06298 -0.4456,0.25142 -0.51252,0.84671 -0.16467,1.46506 0.31854,0.56625 0.7885,0.34903 0.86988,-0.40208 z m -42.8336,-1.77618 c 0.19007,-0.30578 0.34559,-0.93635 0.34559,-1.40127 0,-2.02411 -1.35121,-2.802 -2.06502,-1.18883 -0.46912,1.06017 -0.48371,1.41925 -0.0975,2.39945 0.35693,0.9059 1.31015,1.00592 1.81692,0.19065 z m 57.00441,-1.54362 c -0.0396,-0.49611 -0.19027,-0.75585 -0.43834,-0.75585 -0.24808,0 -0.3987,0.25974 -0.43834,0.75585 -0.0495,0.62003 0.0292,0.75585 0.43834,0.75585 0.4091,0 0.48789,-0.13582 0.43834,-0.75585 z m -99.75205,-0.90182 c 0.12994,-0.43164 0.13375,-0.93929 0.0113,-1.51171 -0.14684,-0.68663 -0.31203,-0.86182 -0.81261,-0.86182 -1.0228,0 -1.3977,1.17431 -0.76909,2.40907 0.41814,0.82134 1.31854,0.80097 1.57039,-0.0355 z m -4.37998,-0.98423 c -0.0323,-0.29796 -0.20679,-0.59246 -0.3878,-0.65442 -0.40351,-0.13814 -0.6684,0.90671 -0.3254,1.28354 0.35273,0.38752 0.78229,0.009 0.7132,-0.62912 z m 37.64644,0.29037 c 0.37593,-0.66829 0.49832,-2.18366 0.23333,-2.88914 -0.53201,-1.41634 -1.78911,-1.27126 -2.23392,0.25781 -0.68835,2.36627 0.94281,4.51169 2.00059,2.63133 z m -6.77079,-0.89191 c 0.45597,-0.73354 0.43983,-2.29992 -0.0324,-3.1393 -1.04293,-1.85397 -2.60493,0.73584 -1.69038,2.80265 0.45663,1.03195 1.20022,1.17726 1.72274,0.33665 z m 28.41717,-0.94046 c 0.25512,-0.45351 0.46385,-1.06507 0.46385,-1.35901 0,-0.7281 -0.84798,-2.18357 -1.27219,-2.18357 -1.13418,0 -1.58562,2.41375 -0.68657,3.67089 0.64512,0.90208 0.92898,0.87771 1.49491,-0.12831 z m -22.22683,-4.03405 c 0.87312,-0.80263 1.03477,-2.51355 0.37776,-3.99834 -0.84299,-1.90508 -2.63196,-0.66952 -2.63196,1.81778 0,0.62903 0.18928,1.21575 0.58143,1.80233 0.66879,1.00038 0.93138,1.05975 1.67277,0.37823 z m -30.97861,-0.86838 c 0,-0.88126 -0.36412,-1.16024 -0.71056,-0.5444 -0.23857,0.4241 -0.25076,0.62442 -0.0625,1.02759 0.29458,0.63097 0.77309,0.3319 0.77309,-0.48319 z m 68.85642,-1.01607 c 0.66024,-0.92322 0.67677,-2.43929 0.0347,-3.18711 -1.22735,-1.42957 -2.77168,1.86853 -1.5735,3.36041 0.56344,0.70154 0.94375,0.65871 1.53877,-0.1733 z m 19.90992,-0.35249 c 0.25975,-0.46174 0.10484,-1.3028 -0.23996,-1.3028 -0.332,0 -0.5232,0.58202 -0.39156,1.19186 0.12616,0.58447 0.34365,0.62267 0.63152,0.11094 z m -64.31938,-5.02246 c 0.63462,-0.88739 0.68443,-2.82287 0.10626,-4.12949 -0.5115,-1.15593 -1.22778,-1.14937 -1.91295,0.0175 -1.44594,2.46257 0.24081,6.30151 1.80669,4.11194 z m -12.36644,-0.26514 c 0.24586,-0.81662 -0.15833,-1.84575 -0.65777,-1.67477 -0.43658,0.14947 -0.58122,1.13644 -0.26561,1.81247 0.31234,0.66901 0.69782,0.61152 0.92338,-0.1377 z m 30.69917,-0.12409 c 0.1585,-0.4474 0.13385,-0.70989 -0.10682,-1.13772 -0.56612,-1.00636 -1.41073,0.30888 -0.90036,1.40205 0.29383,0.62939 0.73125,0.51459 1.00718,-0.26433 z m 8.94322,-0.79195 c 0.51476,-0.57904 0.85444,-2.58591 0.6218,-3.67364 -0.45902,-2.14618 -2.54883,-2.01 -3.28795,0.21426 -0.51568,1.55185 -0.12879,3.45345 0.83301,4.09427 0.38755,0.25822 1.32906,-0.0679 1.83314,-0.63489 z m 20.43526,-0.26974 c 0.0769,-0.70951 -0.2798,-1.23701 -0.6607,-0.97718 -0.26806,0.18285 -0.34422,1.1712 -0.12085,1.56827 0.23443,0.41674 0.71144,0.056 0.78155,-0.59109 z m -85.28343,-2.03673 c 0.56237,-0.99971 0.59147,-1.97198 0.0859,-2.87071 -0.77488,-1.37748 -2.26771,-0.39839 -2.26771,1.48732 0,0.91838 0.79251,2.20795 1.35691,2.20795 0.19858,0 0.56979,-0.37105 0.82491,-0.82456 z m 90.79253,-0.0109 c 0.28928,-0.61965 0.10904,-2.04306 -0.29348,-2.31765 -0.45171,-0.30812 -1.02732,0.39233 -1.02732,1.25011 0,1.42327 0.83836,2.10087 1.3208,1.06754 z m -28.97408,-3.38974 c 0.15164,-0.70247 -0.3527,-1.56793 -0.75413,-1.29409 -0.31592,0.21551 -0.43042,1.17452 -0.19103,1.60008 0.23551,0.41865 0.8303,0.22608 0.94516,-0.30599 z m -23.0333,-1.1529 c 0.74175,-0.80393 0.87624,-1.32238 0.72205,-2.78345 -0.15872,-1.50401 -0.99925,-2.38617 -1.99004,-2.08861 -1.71749,0.51582 -2.10007,3.59888 -0.62337,5.02345 0.7025,0.6777 1.1602,0.64106 1.89136,-0.15139 z m 15.68389,-0.51977 c 0.5149,-0.64111 0.57522,-2.64657 0.10725,-3.56579 -0.37075,-0.72826 -1.17291,-0.80007 -1.67318,-0.1498 -0.53083,0.69 -0.48451,2.79836 0.0793,3.60995 0.53189,0.76563 0.93363,0.79418 1.48662,0.10564 z m -28.58787,-2.16453 c 0,-0.52454 -0.12208,-0.87242 -0.33128,-0.94404 -0.37408,-0.12807 -0.61735,0.67631 -0.44542,1.47277 0.18024,0.83493 0.7767,0.4289 0.7767,-0.52873 z m 18.50106,0.20346 c 0.8204,-0.60936 1.24697,-1.72997 1.24697,-3.27584 0,-1.51676 -0.71096,-3.16565 -1.49734,-3.47268 -1.1453,-0.44717 -2.47116,1.44233 -2.47116,3.52166 0,1.20339 0.56375,2.71682 1.19333,3.20358 0.75852,0.58645 0.76973,0.58662 1.5282,0.0233 z m 30.27521,-3.08349 c 0.0679,-0.48075 0.0298,-1.0284 -0.0858,-1.23385 -0.29826,-0.53019 -1.16294,0.23362 -1.16294,1.02728 0,0.82184 0.16036,1.071 0.68931,1.071 0.31221,0 0.47226,-0.24733 0.55939,-0.86443 z M 35.62204,184.9525 c 0,-0.74112 -0.58751,-1.11019 -0.89556,-0.56258 -0.31762,0.56462 -0.004,1.45701 0.46952,1.3374 0.27877,-0.0704 0.42604,-0.3382 0.42604,-0.77482 z m 118.11025,0.16337 c -0.0642,-0.18477 -0.19682,-0.33594 -0.29461,-0.33594 -0.0978,0 -0.17783,0.15117 -0.17783,0.33594 0,0.18476 0.13257,0.33593 0.29461,0.33593 0.16205,0 0.24206,-0.15117 0.17783,-0.33593 z m -87.43884,-1.13454 c -0.0364,-0.45335 -0.19396,-0.7131 -0.4326,-0.7131 -0.43239,0 -0.63551,1.12778 -0.27454,1.52435 0.37819,0.4155 0.76956,-0.0335 0.70714,-0.81125 z M 82.528,183.1046 c 0.42278,-0.59118 0.66905,-0.6502 2.01617,-0.48326 1.33727,0.16573 1.61375,0.10116 2.15046,-0.50222 1.45078,-1.63095 1.81167,-4.81661 0.78185,-6.90162 -0.41677,-0.84379 -0.74423,-1.18746 -1.13149,-1.18746 -0.42823,0 -0.64493,-0.28146 -1.01154,-1.31382 -0.51814,-1.45908 -1.23499,-1.95109 -2.04504,-1.40361 -0.99437,0.67206 -1.17903,2.7371 -0.39323,4.39721 l 0.5015,1.05946 -0.58686,1.04323 c -0.52824,0.93903 -0.63585,1.00355 -1.07731,0.64599 -0.65306,-0.52895 -1.61935,-0.48591 -2.04774,0.0912 -0.44197,0.59539 -0.59421,2.78298 -0.26993,3.8787 0.49315,1.66631 2.14802,2.02576 3.11316,0.6762 z m -67.22092,-2.03977 c 0,-0.17386 -0.085,-0.3161 -0.18897,-0.3161 -0.10394,0 -0.18898,0.23567 -0.18898,0.52372 0,0.28805 0.085,0.4303 0.18898,0.31611 0.10393,-0.11419 0.18897,-0.34987 0.18897,-0.52373 z m 63.2126,-1.65984 c 0,-0.61568 -0.11372,-0.86854 -0.42604,-0.94738 -0.25555,-0.0645 -0.47161,0.10353 -0.53991,0.41992 -0.18816,0.87163 0.0756,1.59205 0.53991,1.47484 0.31232,-0.0788 0.42604,-0.3317 0.42604,-0.94738 z m -31.12441,-0.0672 c 0.34013,-0.60464 0.27336,-1.54452 -0.13749,-1.93539 -0.46157,-0.43912 -0.91032,-0.14065 -1.06148,0.706 -0.22407,1.255 0.66927,2.17102 1.19897,1.22939 z m 59.94331,-0.24892 c 0,-0.84696 -0.32401,-1.18947 -0.65846,-0.69605 -0.34408,0.50763 -0.15659,1.34809 0.30073,1.34809 0.22813,0 0.35773,-0.23624 0.35773,-0.65204 z m -94.21822,-3.90706 c 0.37954,-0.67469 0.37657,-1.2982 -0.009,-1.9844 -0.38729,-0.68846 -0.79999,-0.54913 -1.14944,0.38808 -0.24532,0.65793 -0.23338,0.80105 0.11915,1.42772 0.46976,0.83506 0.64851,0.86404 1.03972,0.1686 z m 131.52081,-1.25544 c 0.16718,-0.48547 0.1364,-0.70371 -0.15323,-1.08609 -0.41852,-0.55257 -0.86589,-0.11912 -0.86589,0.83896 0,1.18486 0.64252,1.34067 1.01912,0.24713 z m -29.08211,0.10366 c 0.0642,-0.18476 -0.0208,-0.33593 -0.18897,-0.33593 -0.16817,0 -0.25321,0.15117 -0.18898,0.33593 0.0642,0.18477 0.14927,0.33594 0.18898,0.33594 0.0397,0 0.12474,-0.15117 0.18897,-0.33594 z m 73.22835,-2.87526 c 0,-0.26624 -0.12756,-0.48408 -0.28347,-0.48408 -0.28465,0 -0.38848,0.70916 -0.16261,1.11065 0.17635,0.31351 0.44608,-0.0653 0.44608,-0.62657 z M 66.65116,170.01359 c 1.40852,-1.52669 0.78836,-5.38971 -0.86525,-5.38971 -1.77754,0 -2.34414,4.03341 -0.76679,5.45841 0.81389,0.73527 0.89339,0.73192 1.63204,-0.0687 z m -47.4927,-0.53492 c 0.13368,-0.61929 -0.38603,-1.51787 -0.73874,-1.27727 -0.3384,0.23085 -0.37056,1.68404 -0.0418,1.88791 0.32876,0.20386 0.66075,-0.0559 0.78051,-0.61064 z m 77.98204,0.34608 c 0.63239,-0.58134 0.84577,-1.66189 0.68214,-3.45435 -0.18583,-2.03566 -0.91287,-2.5626 -2.125,-1.54011 -1.12656,0.95031 -1.18823,3.94684 -0.1028,4.99506 0.64284,0.6208 0.86977,0.62071 1.54566,-6.7e-4 z m -48.50031,-1.58958 c 0.44473,-1.25538 -0.65495,-2.5972 -1.14739,-1.40004 -0.3206,0.77941 -0.31339,0.98512 0.0577,1.64477 0.36833,0.65477 0.80585,0.55651 1.0897,-0.24473 z m 30.72988,-0.75585 c 0,-0.27715 -0.08,-0.5039 -0.17782,-0.5039 -0.2383,0 -0.40896,0.52459 -0.25799,0.79298 0.21283,0.37832 0.43581,0.23041 0.43581,-0.28908 z m 10.00203,-1.05311 c 0.51957,-1.17418 0.49469,-2.32161 -0.0722,-3.3293 -0.76485,-1.35965 -1.67232,-0.86028 -2.26325,1.24544 -0.40156,1.43094 -0.3869,1.53719 0.31765,2.30081 0.85887,0.93089 1.54239,0.8574 2.01778,-0.21695 z m -29.27329,-2.4819 c 0.29877,-0.5311 0.33983,-0.82058 0.18796,-1.32502 -0.26478,-0.87951 -0.50694,-1.09981 -0.94022,-0.85535 -0.5314,0.29982 -0.6747,1.43524 -0.27918,2.21214 0.41528,0.81573 0.55715,0.81136 1.03144,-0.0318 z m -30.42952,-0.29229 c 0,-0.81297 -0.4728,-1.14625 -0.75836,-0.53459 -0.27757,0.59453 -0.0849,1.17051 0.39156,1.17051 0.2339,0 0.3668,-0.2304 0.3668,-0.63592 z m 81.97236,-1.38016 c 0.84414,-0.91491 1.11038,-2.0238 0.80282,-3.34372 -0.36314,-1.55848 -1.41964,-1.32543 -2.3983,0.52903 -0.60963,1.15518 -0.71842,2.08241 -0.33313,2.83924 0.42341,0.83168 1.14711,0.82247 1.92861,-0.0246 z M 78.68251,161.4325 c 0.0598,-0.27714 0.0264,-0.5039 -0.0743,-0.5039 -0.10068,0 -0.18305,0.22676 -0.18305,0.5039 0,0.27715 0.0334,0.50391 0.0743,0.50391 0.0408,0 0.12322,-0.22676 0.18305,-0.50391 z m 82.86399,-1.65746 c 0.0953,-0.89155 -0.48268,-1.61077 -0.94269,-1.17314 -0.35108,0.33401 -0.47229,1.32873 -0.21717,1.78223 0.26884,0.47791 1.08979,0.0468 1.15986,-0.60909 z M 41.5358,159.2437 c 0.47016,-0.50957 0.70982,-0.59144 0.9797,-0.33468 0.98443,0.93655 1.89394,-0.0482 1.89394,-2.05061 0,-2.39693 -1.43934,-3.54435 -2.32398,-1.85263 -0.2289,0.43773 -0.71381,0.90806 -1.07759,1.04519 -1.27638,0.48115 -1.76114,2.27819 -0.90283,3.34688 0.54111,0.67375 0.68077,0.6587 1.43076,-0.15415 z m 30.18263,-2.5e-4 c 0.0653,-0.18777 0.18896,-0.26423 0.27482,-0.1699 0.18546,0.20377 0.40912,-0.67702 0.24569,-0.96754 -0.1873,-0.33296 -0.96389,-0.22572 -1.09493,0.15121 -0.15392,0.4427 0.0274,1.32765 0.27197,1.32765 0.10107,0 0.23717,-0.15364 0.30245,-0.34142 z m 36.38071,-2.18804 c 0.18343,-0.39291 0.18983,-0.70917 0.0272,-1.34373 -0.22139,-0.86373 -0.36559,-0.96787 -0.86678,-0.62598 -0.35731,0.24373 -0.40641,2.01453 -0.0627,2.26108 0.42583,0.30545 0.65877,0.23023 0.90229,-0.29137 z m -3.33519,-1.2435 c 0.15849,-0.4474 0.13384,-0.70989 -0.10683,-1.13772 -0.56612,-1.00636 -1.41073,0.30888 -0.90036,1.40205 0.29383,0.62939 0.73125,0.51459 1.00719,-0.26433 z m 72.18484,-0.0836 c 0.0529,-0.2449 -0.0206,-0.72451 -0.16329,-1.06581 -0.20253,-0.48444 -0.33192,-0.5416 -0.58995,-0.2606 -0.46282,0.50399 -0.51318,0.98706 -0.16701,1.6024 0.32161,0.57172 0.76603,0.43844 0.92025,-0.27599 z m -149.8221,-0.66328 c 0.83638,-1.48677 0.39178,-4.55037 -0.66035,-4.55037 -0.80123,0 -1.71044,1.47757 -1.71044,2.77966 0,2.30884 1.45624,3.39648 2.37079,1.77071 z m 57.34375,0.32495 c 0.314,-0.67257 0.10484,-1.51598 -0.37596,-1.51598 -0.42874,0 -0.66819,0.72601 -0.49859,1.5117 0.13921,0.6449 0.57447,0.64703 0.87455,0.004 z m -31.02412,-2.10537 c 0.0769,-0.96289 -0.45549,-1.37194 -0.8569,-0.65837 -0.40141,0.71357 -0.1713,1.66 0.37036,1.52327 0.27439,-0.0693 0.44758,-0.37714 0.48654,-0.8649 z m 47.6494,-0.73227 c 0.34642,-1.15067 0.24238,-2.03768 -0.23902,-2.03768 -0.82748,0 -1.220384,1.63829 -0.55749,2.32463 0.46888,0.48547 0.57553,0.44705 0.79651,-0.28695 z m -6.32407,-1.02988 c 0,-0.66689 -0.10724,-0.86176 -0.52076,-0.94632 -0.33961,-0.0694 -0.56029,0.0766 -0.63439,0.41992 -0.20288,0.9398 0.0759,1.58691 0.63439,1.47271 0.41352,-0.0846 0.52076,-0.27943 0.52076,-0.94631 z m -29.60426,-0.56638 c 0.17339,-0.55076 -0.004,-1.73648 -0.40277,-2.69654 -0.23932,-0.57576 -1.07959,0.44231 -1.07959,1.30803 0,1.71586 1.0652,2.71362 1.48236,1.38851 z M 8.0905301,150.4258 c 0.0752,-0.69424 -0.47032,-1.16203 -0.75825,-0.6502 -0.28793,0.51183 -0.0248,1.48161 0.36576,1.34791 0.18101,-0.062 0.35763,-0.37594 0.39249,-0.69771 z m 65.6102499,0.069 c 0,-0.17386 -0.12756,-0.31611 -0.28346,-0.31611 -0.29224,0 -0.37544,0.39639 -0.16262,0.77472 0.15098,0.26838 0.44608,-0.035 0.44608,-0.45861 z m 17.16614,-0.65062 c 0.0744,-0.8923 -0.23749,-1.3328 -0.94868,-1.34002 -0.71011,-0.007 -0.927,1.23801 -0.35824,2.05672 0.51986,0.74831 1.21667,0.36619 1.30692,-0.7167 z m -30.98129,-0.46274 c 0.29223,-0.62596 0.0627,-1.55429 -0.38423,-1.55429 -0.45852,0 -0.65666,0.85871 -0.3498,1.51598 0.28958,0.62027 0.45822,0.62907 0.73403,0.0383 z m 17.68501,-0.29453 c 1.09791,-1.69582 0.70325,-4.44058 -0.69574,-4.83871 -0.6051,-0.1722 -0.77786,-0.0606 -1.27559,0.82421 -0.76431,1.35868 -0.79695,3.06847 -0.0778,4.0741 0.64868,0.90705 1.43813,0.88408 2.0491,-0.0596 z m 27.45104,-0.96731 c 0.19803,-0.73825 0.18273,-1.14641 -0.0932,-2.48511 -0.39737,-1.92819 -1.18255,-3.51822 -1.73735,-3.51822 -0.58106,0 -1.33291,1.46514 -1.33291,2.59746 0,1.00519 0.31628,2.01448 1.11214,3.54898 0.65214,1.2574 1.69509,1.18464 2.05127,-0.14311 z m 20.01721,-0.14706 c 0.15751,-0.72964 -0.24234,-1.4158 -0.52855,-0.90702 -0.24189,0.43001 -0.0921,1.4335 0.21408,1.4335 0.11045,0 0.25198,-0.23692 0.31447,-0.52648 z M 18.79243,147.41647 c 0.39594,-1.00487 0.37026,-1.80561 -0.0838,-2.61272 -0.50149,-0.89147 -1.2283,-0.85742 -1.59559,0.0747 -0.39593,1.00488 -0.37026,1.80561 0.0838,2.61273 0.50148,0.89146 1.22829,0.85741 1.59558,-0.0747 z m 29.36312,-0.699 c 0.21724,-0.80967 0.21019,-1.05697 -0.0503,-1.76366 -0.5358,-1.45364 -1.99503,-0.74611 -1.99503,0.96734 0,1.96535 1.56787,2.57578 2.04532,0.79632 z m 25.05599,-0.59576 c 0.95871,-2.02539 0.32537,-4.67731 -1.11706,-4.67731 -1.46646,0 -2.17439,3.12739 -1.10626,4.88709 0.72405,1.19286 1.59844,1.11035 2.22332,-0.20978 z m 40.68274,-0.52379 c 0.12336,-0.57151 -0.11759,-1.51439 -0.4351,-1.70253 -0.38761,-0.22968 -0.87881,0.77344 -0.74519,1.52184 0.15739,0.88153 1.00112,1.0107 1.18029,0.18069 z m 47.63389,0.16216 c 0.26489,-0.47088 -0.0261,-1.6282 -0.40932,-1.6282 -0.37601,0 -0.70141,0.84393 -0.56646,1.46912 0.13695,0.63443 0.66038,0.71976 0.97578,0.15908 z m 35.72113,-0.13555 c 0.29575,-0.36823 0.42,-0.86517 0.42,-1.67967 0,-2.24055 -1.30177,-3.28396 -2.20829,-1.77003 -0.56556,0.9445 -0.55574,2.11312 0.0265,3.14808 0.53263,0.94681 1.15771,1.05382 1.76183,0.30162 z m -114.09215,-0.7641 c 0.33294,-0.47924 0.39904,-0.81593 0.29912,-1.52358 -0.13751,-0.97401 -0.85441,-1.67741 -1.35888,-1.33329 -0.50693,0.3458 -0.70117,1.76765 -0.36578,2.67757 0.35102,0.95232 0.84533,1.01449 1.42554,0.1793 z m 2.82709,-0.39261 c 0,-0.44791 -0.12598,-0.67187 -0.37795,-0.67187 -0.36419,0 -0.51211,0.65735 -0.25197,1.11978 0.26014,0.46244 0.62992,0.1995 0.62992,-0.44791 z m 24.3145,-0.19055 c 0.15751,-0.72963 -0.24235,-1.41579 -0.52855,-0.90702 -0.2419,0.43001 -0.092,1.43351 0.21406,1.43351 0.11046,0 0.25198,-0.23692 0.31449,-0.52649 z m -56.2515,-0.81725 c 0.52516,-0.93356 0.47216,-1.81497 -0.16661,-2.77043 -0.4089,-0.61164 -0.50171,-0.95065 -0.37256,-1.3609 0.24899,-0.79092 0.0143,-2.06521 -0.53736,-2.91792 l -0.47907,-0.74047 0.75573,-1.3961 c 1.38373,-2.55627 1.56371,-4.28648 0.59639,-5.73339 -1.06089,-1.58688 -2.56186,-0.75926 -3.01106,1.66027 -0.18799,1.01255 -0.16222,1.38024 0.18642,2.66051 0.37949,1.39355 0.38601,1.54933 0.10518,2.5147 -0.16465,0.56601 -0.38222,1.02911 -0.48349,1.02911 -0.10127,0 -0.18412,0.61155 -0.18412,1.35901 0,1.6112 0.65419,3.00814 1.40873,3.00814 0.40849,0 0.48103,0.15197 0.48103,1.0078 0,1.07142 0.56581,2.35154 1.03937,2.35154 0.15591,0 0.45354,-0.30234 0.66142,-0.67187 z M 24.71811,143.0569 c 0.38092,-0.67714 0.26057,-1.89356 -0.24567,-2.48321 -0.43765,-0.50975 -0.50724,-0.50975 -0.94489,0 -0.83677,0.97464 -0.52386,2.88633 0.47245,2.88633 0.27023,0 0.59338,-0.18141 0.71811,-0.40312 z m 143.41239,-0.14644 c 0.15634,-0.7242 -0.17938,-1.63401 -0.60293,-1.63401 -0.18522,0 -0.42335,0.244 -0.52918,0.54222 -0.28869,0.81361 -0.0218,1.64135 0.52918,1.64135 0.27403,0 0.5358,-0.23859 0.60293,-0.54956 z m -88.29801,-1.01073 c 0.152,-1.07657 -0.0789,-1.55813 -0.67491,-1.40757 -0.79475,0.20075 -0.71117,2.29599 0.0916,2.29599 0.33748,0 0.49086,-0.23361 0.58332,-0.88842 z m 59.69832,0.39424 c 0.13812,-0.63986 -0.37317,-1.54878 -0.73313,-1.30324 -0.28424,0.1939 -0.3786,1.17066 -0.15202,1.57346 0.2266,0.40282 0.77607,0.23507 0.88515,-0.27022 z m -44.28404,-0.44994 c 0.82786,-1.19166 0.38021,-3.42302 -0.68672,-3.42302 -1.04668,0 -1.39124,2.75652 -0.44982,3.59867 0.61114,0.5467 0.63756,0.54262 1.13654,-0.17565 z m 57.21513,0.0852 c 0.23098,-0.28763 0.42,-0.72869 0.42,-0.98014 0,-0.25145 0.31889,-0.73418 0.70866,-1.07274 0.88129,-0.76551 1.06099,-2.10405 0.39394,-2.9346 -0.56521,-0.70375 -0.83475,-0.67662 -1.28833,0.12971 -0.2061,0.36635 -0.6391,0.7019 -0.96223,0.74567 -0.47044,0.0637 -0.66081,0.33495 -0.95527,1.36103 -0.41522,1.44685 -0.36607,1.72153 0.4703,2.62812 0.71618,0.77631 0.69029,0.77368 1.21293,0.12295 z m -55.04458,-0.99336 c 0,-0.84612 -0.074,-1.0032 -0.47245,-1.0032 -0.35417,0 -0.4884,0.20073 -0.53621,0.80185 -0.068,0.85436 0.25925,1.43764 0.72519,1.29272 0.17762,-0.0552 0.28347,-0.46277 0.28347,-1.09137 z m 86.18182,-0.31606 c 0.25512,-0.45351 0.46386,-1.06507 0.46386,-1.35901 0,-0.6916 -0.8393,-2.18357 -1.22835,-2.18357 -0.37221,0 -1.22834,1.47969 -1.22834,2.123 0,0.77794 0.75537,2.24414 1.15615,2.24414 0.20506,0 0.58156,-0.37105 0.83668,-0.82456 z m -59.28667,-1.10856 c 0.0751,-0.94037 -0.45296,-1.37642 -0.838,-0.69196 -0.37812,0.67217 -0.13349,1.68038 0.37637,1.55106 0.24965,-0.0633 0.42398,-0.38775 0.46163,-0.8591 z M 35.4287,139.37118 c 0.54406,-0.44066 0.81952,-1.78276 0.53321,-2.5979 -0.10352,-0.29473 -0.40389,-0.75365 -0.66747,-1.0198 -0.42537,-0.42953 -0.53479,-0.41922 -0.97346,0.0917 -0.6537,0.7614 -0.6944,2.62433 -0.0742,3.39655 0.50344,0.62684 0.56013,0.63305 1.18193,0.12942 z m 30.52405,-0.49279 c 0,-0.63261 -0.53745,-0.98014 -0.7984,-0.51626 -0.14876,0.26444 -0.14138,0.50482 0.0265,0.86447 0.26996,0.57823 0.77188,0.3518 0.77188,-0.34821 z m 41.00788,0.53055 c 0,-0.19567 0.0995,-0.24645 0.22109,-0.11285 0.15,0.16479 0.18108,0.0575 0.0967,-0.33356 -0.0684,-0.31705 -0.0504,-0.49508 0.0402,-0.39562 0.0905,0.0995 0.38719,-0.13042 0.65925,-0.51084 0.84382,-1.17991 0.55847,-3.66631 -0.42076,-3.66631 -0.8149,0 -1.23048,0.72803 -1.20137,2.10462 0.0163,0.76922 -0.073,1.25859 -0.25184,1.38058 -0.35803,0.24423 -0.35134,0.70188 0.0199,1.36185 0.33822,0.60124 0.83689,0.70381 0.83689,0.17213 z m 5.63445,-1.40505 c 0.0466,-0.71987 -0.0478,-1.00797 -0.43218,-1.31933 -0.66169,-0.53593 -1.1526,0.25517 -0.96832,1.56043 0.10764,0.76238 0.21185,0.87385 0.73317,0.78429 0.5043,-0.0867 0.61783,-0.26109 0.66733,-1.02539 z m -13.014944,-0.13961 c 0.598064,-1.35154 0.0669,-3.47452 -0.86928,-3.47452 -0.54594,0 -0.55956,-0.4455 -0.0523,-1.7118 0.41029,-1.02427 1.309981,-1.3794 1.309981,-0.51708 0,0.25223 0.176253,0.85691 0.391663,1.34374 0.56276,1.27178 1.62691,1.23249 2.423,-0.0895 0.81094,-1.34663 0.77918,-2.48495 -0.10974,-3.93234 -0.38316,-0.62389 -0.85088,-1.22135 -1.03937,-1.3277 -0.4198,-0.23686 -0.44931,-1.0113 -0.0489,-1.28441 0.25959,-0.17708 0.2541,-0.29729 -0.0472,-1.03319 -0.29554,-0.72172 -0.49025,-0.83419 -1.46,-0.84334 -1.121744,-0.0106 -1.810164,-0.59462 -1.810164,-1.53569 0,-0.52552 -0.744396,-1.40106 -1.318786,-1.55112 -0.30158,-0.0788 -0.46306,-0.38021 -0.51159,-0.95496 -0.10754,-1.2737 -0.7088,-2.14997 -1.47521,-2.14997 -0.84178,0 -1.2749,0.75655 -1.32831,2.3202 -0.0229,0.67162 -0.13772,1.39181 -0.25508,1.60044 -0.46101,0.81951 -0.0979,2.26054 0.5696,2.26054 0.1812,0 0.44057,-0.26455 0.57638,-0.58788 0.70114,-1.66921 1.29116,-0.11729 1.13863,2.99491 -0.0653,1.33284 -0.14658,1.59832 -0.54339,1.77536 -0.27212,0.12141 -0.56268,0.61446 -0.69716,1.18305 l -0.23059,0.97488 -0.79977,-0.63652 c -0.43988,-0.35009 -0.84991,-0.86877 -0.91118,-1.15263 -0.0613,-0.28385 -0.18504,-0.4352 -0.27504,-0.33633 -0.09,0.0989 -0.41701,-0.0532 -0.72672,-0.33787 -0.95519,-0.87807 -1.4628,-0.67499 -2.01403,0.80575 -0.69049,1.85479 -0.51375,2.94395 0.87968,5.42096 1.59318,2.83213 2.37951,2.99946 3.75024,0.79806 0.60414,-0.97025 0.72615,-1.37826 0.70062,-2.34301 -0.017,-0.6425 0.0556,-1.17024 0.16135,-1.17276 0.10574,-0.003 0.38359,-0.0957 0.61745,-0.20715 0.38037,-0.18121 0.42519,-0.0812 0.42519,0.94818 0,1.43708 0.31442,2.22501 1.02212,2.56147 0.38588,0.18345 0.56895,0.5062 0.6155,1.08509 0.0767,0.95416 0.706366,1.99974 1.204246,1.99974 0.18881,0 0.52104,-0.40168 0.73828,-0.89262 z m 17.969814,-0.29738 c 0.29979,-0.64212 0.006,-1.278 -0.44748,-0.96864 -0.32094,0.21892 -0.41665,0.85825 -0.18909,1.26282 0.19672,0.34969 0.37429,0.26764 0.63657,-0.29418 z m -11.66324,-0.69656 c -0.0879,-0.40721 -0.14541,-0.42675 -0.26274,-0.0893 -0.17716,0.50955 -0.0335,1.05964 0.20761,0.79478 0.0922,-0.10131 0.11702,-0.41879 0.0551,-0.70551 z m 10.50612,0.41045 c 0.269,-0.57618 -0.19548,-1.5473 -0.74005,-1.5473 -0.36781,0 -0.67582,1.09247 -0.47273,1.67667 0.17282,0.49707 0.95951,0.41315 1.21278,-0.12937 z M 78.3307,135.39296 c 0,-0.27461 -0.19134,-0.54761 -0.4252,-0.60665 -0.41363,-0.10443 -0.59026,0.54178 -0.29267,1.07077 0.22016,0.39138 0.71787,0.0696 0.71787,-0.46412 z m 91.11826,-0.20208 c 0.29003,-0.7868 0.29479,-0.97096 0.0457,-1.76365 -0.38257,-1.21748 -1.33882,-1.39424 -1.76,-0.32534 -0.38398,0.97456 -0.3811,1.58271 0.0111,2.3532 0.46919,0.92161 1.31441,0.79049 1.70315,-0.26421 z M 47.24209,134.22607 c 0.3324,-0.71197 0.0944,-1.51598 -0.44876,-1.51598 -0.52708,0 -0.71076,0.5677 -0.46194,1.42772 0.20816,0.71947 0.59835,0.75729 0.9107,0.0883 z m -31.10607,-0.8916 c 0.30875,-0.78359 0.17747,-2.22418 -0.23789,-2.61047 -0.43551,-0.40503 -1.02567,0.0791 -1.33042,1.09134 -0.57501,1.90995 0.8648,3.30461 1.56831,1.51913 z m 66.87185,-0.21755 c 0.40562,-0.62672 0.42602,-1.52768 0.0472,-2.0865 -0.1559,-0.23001 -0.28346,-0.7723 -0.28346,-1.20509 0,-0.44307 -0.16514,-0.94399 -0.37796,-1.14645 -0.22237,-0.21156 -0.37795,-0.70339 -0.37795,-1.19479 0,-0.85759 0.32316,-1.24593 1.36664,-1.64227 0.31858,-0.121 0.6297,-0.58608 0.81255,-1.21465 0.2836,-0.97488 0.27564,-1.06222 -0.18554,-2.03651 -0.26501,-0.55987 -0.48184,-1.15752 -0.48184,-1.32811 0,-0.51761 -1.44556,-0.35294 -1.70079,0.19374 -0.12939,0.27715 -0.33194,0.50391 -0.45012,0.50391 -0.22911,0 -0.7144,1.18024 -0.82875,2.0156 -0.0379,0.27715 -0.0939,1.14562 -0.12427,1.92993 -0.0413,1.06572 -0.17962,1.5999 -0.54739,2.11415 -1.00589,1.40654 -0.81094,4.68805 0.32933,5.54334 0.71224,0.53423 2.33495,0.2758 2.80231,-0.4463 z m -41.06159,-1.06873 c 0.23612,-0.36404 0.58929,-0.75215 0.78482,-0.86247 0.19553,-0.11032 0.35551,-0.36745 0.35551,-0.57141 0,-0.62768 0.58755,-1.56435 0.86329,-1.37625 0.14347,0.0979 0.39667,-0.0635 0.56267,-0.35859 0.166,-0.29509 0.40966,-0.53653 0.54145,-0.53653 0.27791,0 0.75427,-1.66526 0.56497,-1.97503 -0.0701,-0.11469 -0.1654,-0.0196 -0.2118,0.21138 -0.0989,0.49218 -0.41506,0.53363 -0.79662,0.10444 -0.22385,-0.2518 -0.22842,-0.39707 -0.0261,-0.83041 0.40223,-0.86155 0.11658,-1.56128 -0.54179,-1.32721 -0.48904,0.17387 -0.59648,0.0794 -0.75548,-0.66399 -0.10195,-0.47667 -0.51978,-1.26007 -0.9285,-1.74089 -0.72273,-0.85023 -0.77526,-0.86241 -1.91436,-0.44417 -1.3932,0.51153 -2.18883,1.60254 -1.99453,2.73497 0.0698,0.40675 0.20031,1.25519 0.29006,1.88543 0.0897,0.63024 0.34666,1.58703 0.5709,2.12621 0.2725,0.65519 0.3703,1.24536 0.29489,1.77947 -0.0922,0.65307 0.0164,0.95525 0.59407,1.65305 0.85036,1.02719 1.18124,1.06356 1.74655,0.192 z m 81.17265,0.32359 c 0.0647,-0.18607 -0.019,-0.4315 -0.18597,-0.5454 -0.36182,-0.24682 -0.56347,0.0252 -0.38954,0.52542 0.15691,0.45136 0.42234,0.46057 0.57551,0.02 z m -62.67062,-1.36464 c 0.31909,-1.01549 0.19358,-2.21417 -0.33806,-3.22859 -0.32137,-0.6132 -0.3344,-0.74793 -0.0885,-0.91563 0.42947,-0.29297 0.25184,-1.68988 -0.23045,-1.8123 -0.54418,-0.13812 -1.7044,1.2457 -1.97213,2.35221 -0.17815,0.73624 -0.15718,1.19804 0.1111,2.44678 0.38759,1.80415 0.69869,2.21527 1.5914,2.10305 0.47994,-0.0603 0.72811,-0.31355 0.92669,-0.94552 z m 56.04235,-0.20433 c 0.0688,-0.31882 -0.005,-0.78773 -0.16876,-1.07979 -0.26122,-0.46437 -0.32199,-0.46007 -0.60487,0.0428 -0.25979,0.4618 -0.2722,0.6496 -0.0714,1.07979 0.31818,0.6815 0.69273,0.66254 0.84499,-0.0428 z m -90.63635,-0.86905 c 0.0752,-0.69424 -0.47033,-1.16203 -0.75825,-0.6502 -0.28793,0.51183 -0.0248,1.48161 0.36576,1.34791 0.18101,-0.062 0.35763,-0.37594 0.39249,-0.69771 z m 47.84046,-1.76802 c 0.003,-0.37461 -0.12217,-1.00642 -0.27884,-1.40403 -0.26521,-0.67311 -0.25545,-0.73035 0.14174,-0.8306 0.30712,-0.0775 0.40924,-0.29582 0.36467,-0.77954 l -0.0619,-0.67187 0.29211,0.67187 c 0.16067,0.36953 0.29482,0.84604 0.29813,1.05892 0.009,0.56004 0.97887,1.07738 1.44527,0.77068 0.21886,-0.14392 0.44708,-0.48935 0.50715,-0.76763 0.0601,-0.27828 0.30575,-0.55548 0.54597,-0.616 0.33107,-0.0834 0.42244,-0.29293 0.37763,-0.86589 -0.0438,-0.56027 0.0358,-0.75585 0.30757,-0.75585 0.20168,0 0.47433,-0.23057 0.6059,-0.51238 0.21373,-0.45779 0.27578,-0.45355 0.58245,0.0398 0.49933,0.80328 1.30336,0.3795 1.30336,-0.68697 0,-0.99175 -0.43691,-1.28548 -1.87785,-1.26246 -0.57621,0.009 -1.09561,-0.12119 -1.15421,-0.28975 -0.0586,-0.16857 -0.50433,-0.40341 -0.99048,-0.52186 -0.76408,-0.18618 -0.9293,-0.11575 -1.21863,0.5194 -0.35363,0.77633 -1.12798,0.95731 -2.24933,0.52571 -0.41808,-0.16091 -0.74145,-0.0551 -1.09687,0.35886 -0.49033,0.57113 -0.50688,0.56746 -0.61028,-0.1354 -0.0584,-0.39734 -0.24518,-0.73438 -0.41494,-0.74896 -0.19593,-0.0168 -0.22239,-0.0884 -0.0725,-0.19596 0.431,-0.30916 0.24451,-0.78532 -0.30757,-0.78532 -0.63912,0 -1.06253,0.75729 -0.88451,1.58199 0.10763,0.49861 0.1512,0.51135 0.30171,0.0883 0.0968,-0.27197 0.17457,-0.34331 0.17292,-0.15855 -0.002,0.18476 -0.21252,0.94061 -0.46858,1.67967 -0.54137,1.56249 -0.58228,2.49429 -0.1715,3.90639 0.49458,1.70018 2.19082,2.53611 3.02884,1.49267 0.34846,-0.43386 0.41832,-0.40171 0.72991,0.33586 0.3223,0.76293 0.3608,0.77765 0.59559,0.22784 0.13805,-0.3233 0.25371,-0.89431 0.25702,-1.26892 z m -0.56092,-3.47842 c 0,-0.18476 0.085,-0.42936 0.18898,-0.54355 0.10393,-0.11419 0.18897,-0.0564 0.18897,0.12831 0,0.18477 -0.085,0.42937 -0.18897,0.54356 -0.10394,0.11419 -0.18898,0.0564 -0.18898,-0.12832 z m 3.6566,-0.64527 c -0.13168,-0.14867 -0.14934,-0.51027 -0.0484,-0.99007 0.19405,-0.92192 0.28767,-0.94962 0.40954,-0.12117 0.11698,0.79522 -0.0865,1.42135 -0.36119,1.11124 z m 55.56389,4.36884 c 0.1494,-0.42976 -0.1972,-1.18423 -0.42769,-0.93099 -0.30339,0.33331 -0.25849,1.19898 0.0622,1.19898 0.14976,0 0.31423,-0.1206 0.36548,-0.26799 z m 85.15748,-0.42851 c 0,-0.86088 -0.62548,-0.76322 -0.72034,0.11247 -0.0437,0.40312 0.0581,0.58403 0.32853,0.58403 0.27045,0 0.39181,-0.21575 0.39181,-0.6965 z M 3.5012401,127.32497 c 0.77864,-1.52948 -0.55639,-3.9027 -1.41678,-2.51854 -0.42285,0.68026 -0.48744,1.55635 -0.18805,2.5508 0.26051,0.8653 1.15706,0.84728 1.60483,-0.0322 z M 34.54675,126.6352 c 0.82561,-0.51162 0.93092,-1.43198 0.32535,-2.84332 -0.59591,-1.38884 -0.83429,-1.43212 -1.59776,-0.29012 -0.62645,0.93704 -0.68183,1.3046 -0.39713,2.63574 0.20516,0.95927 0.69099,1.1041 1.66954,0.4977 z m 75.21308,-0.73265 c 0.0752,-0.69424 -0.47033,-1.16203 -0.75825,-0.6502 -0.28793,0.51183 -0.0248,1.48161 0.36576,1.34791 0.18101,-0.062 0.35763,-0.37594 0.39249,-0.69771 z m 9.27254,-0.46376 c -0.16467,-0.35273 -0.27866,-0.37157 -0.47709,-0.0788 -0.19842,0.29274 -0.20902,0.49538 -0.0444,0.84812 0.16469,0.35273 0.27868,0.37156 0.47711,0.0788 0.19842,-0.29274 0.20903,-0.49539 0.0443,-0.84812 z M 13.937,124.38158 c 0.7653,-1.73065 -0.5303,-4.03377 -1.50385,-2.67333 -0.56715,0.79253 -0.59133,1.84893 -0.0638,2.78672 0.52754,0.93779 1.12181,0.8948 1.56764,-0.11339 z m 197.90552,-0.0699 c 0.85575,-1.52121 0.21132,-4.0312 -1.035,-4.0312 -0.74205,0 -1.27996,1.06566 -1.27996,2.53575 0,1.96725 1.50327,2.93836 2.31496,1.49545 z M 65.5748,123.80778 c 0,-0.27714 -0.085,-0.5039 -0.18898,-0.5039 -0.10394,0 -0.18898,0.22676 -0.18898,0.5039 0,0.27715 0.085,0.5039 0.18898,0.5039 0.10394,0 0.18898,-0.22675 0.18898,-0.5039 z m 48.28348,-1.0124 c 0,-0.84465 -0.0743,-1.0032 -0.46986,-1.0032 -0.53841,0 -0.73538,0.91964 -0.36629,1.71022 0.3796,0.81307 0.83615,0.42703 0.83615,-0.70702 z m -51.18159,0.31795 c 0.0625,-0.28956 0.0173,-0.69772 -0.10042,-0.90702 -0.11774,-0.2093 -0.21407,-0.60595 -0.21407,-0.88146 0,-0.37743 0.0706,-0.34016 0.28636,0.15117 0.26992,0.61465 0.27925,0.59422 0.16239,-0.35571 -0.0682,-0.55429 -0.14887,-1.06073 -0.1793,-1.12543 -0.12516,-0.26607 -0.45843,0.3641 -0.45843,0.86686 0,0.29788 -0.13787,0.81242 -0.30638,1.14342 -0.16851,0.33101 -0.25622,0.83422 -0.19491,1.11824 0.1455,0.67403 0.85863,0.66688 1.00476,-0.0101 z m 113.4493,0.0226 c 0.12939,-0.27715 0.3524,-0.5039 0.49557,-0.5039 0.14319,0 0.26034,-0.0906 0.26034,-0.20126 0,-0.47671 -1.80144,-3.1729 -2.06066,-3.08415 -0.42907,0.14689 -0.81997,2.82774 -0.53187,3.64779 0.27902,0.79425 1.48838,0.88743 1.83662,0.14152 z m -52.94738,-1.76516 c 0.0769,-0.96289 -0.45549,-1.37194 -0.8569,-0.65837 -0.40142,0.71357 -0.1713,1.66 0.37036,1.52327 0.27439,-0.0693 0.44757,-0.37713 0.48654,-0.8649 z m 75.20455,0.0664 c 0.9407,-1.17128 0.0467,-3.74311 -1.00508,-2.89125 -0.84185,0.68187 -0.53486,3.35528 0.3909,3.40398 0.10679,0.006 0.38317,-0.22511 0.61418,-0.51273 z M 24.22081,120.7943 c 0.16264,-0.63457 0.15624,-0.95083 -0.0272,-1.34374 -0.60646,-1.29899 -1.77328,0.021 -1.32748,1.50176 0.29295,0.97305 1.08855,0.88025 1.35467,-0.15802 z m 89.73048,-1.629 c 0.003,-0.52899 -0.84559,-0.0557 -0.90571,0.50528 -0.0527,0.49164 0.003,0.51368 0.42178,0.16797 0.26536,-0.21886 0.48312,-0.52183 0.48393,-0.67325 z m 46.64489,0.001 c 0.33403,-0.61263 0.55702,-1.20326 0.49557,-1.31252 -0.0615,-0.10925 0.0345,-0.70125 0.21316,-1.31555 0.715,-2.45785 0.14002,-4.42641 -1.19988,-4.10812 -1.54339,0.36663 -1.60048,0.41944 -1.46799,1.35778 0.0873,0.61859 0.0157,1.07423 -0.24867,1.58107 -0.37208,0.7134 -0.46832,1.22914 -0.4265,2.28552 0.0216,0.54688 1.42299,2.53767 1.82783,2.59667 0.10953,0.016 0.47244,-0.47222 0.80648,-1.08485 z m -33.60405,-0.0619 c 0,-0.46192 0.085,-0.83987 0.18898,-0.83987 0.33596,0 0.20043,-1.53112 -0.20381,-2.30246 -0.66818,-1.27492 -1.82308,-0.14109 -1.90861,1.87377 -0.0253,0.59565 -0.1556,1.1578 -0.2896,1.24921 -0.5809,0.39625 -0.15319,0.74333 0.9847,0.79906 1.19329,0.0584 1.22834,0.0362 1.22834,-0.77971 z m 57.89959,0.46029 c 0.93966,-0.76108 1.084,-3.45034 0.24149,-4.49937 -0.54924,-0.68387 -1.50826,-0.62132 -2.03195,0.13253 -0.64673,0.93092 -0.60488,2.89658 0.0841,3.95005 0.57639,0.88134 1.00391,0.98576 1.70638,0.41679 z M 35.42226,118.17302 c 0.60673,-1.64606 -0.41393,-3.50495 -1.33524,-2.43185 -0.49232,0.57343 -0.61368,2.09666 -0.22246,2.79211 0.38305,0.68093 1.24764,0.48097 1.5577,-0.36026 z m 40.26707,0.0674 c 0.17898,-1.00245 -0.40337,-2.08497 -0.87848,-1.63297 -0.34238,0.32573 -0.48564,1.64729 -0.22818,2.10495 0.28278,0.5027 0.9862,0.20269 1.10666,-0.47198 z m -3.07806,-1.44892 c 0.3715,-1.00245 -0.0159,-2.22228 -0.70576,-2.22228 -0.80038,0 -1.12371,1.48177 -0.54702,2.50691 0.3187,0.56655 0.99422,0.41306 1.25278,-0.28463 z m 143.3238,-1.15277 c 0.33721,-0.7885 0.31255,-1.18233 -0.13776,-2.19998 -0.75241,-1.7004 -1.87605,-0.94736 -1.87605,1.2573 0,1.7139 1.40314,2.37071 2.01381,0.94268 z M 42.31197,115.2151 c 0.38667,-1.1303 0.34079,-2.02214 -0.14184,-2.75671 -0.41485,-0.63142 -2.09646,-1.57065 -2.41862,-1.35088 -0.27849,0.18996 -0.35898,1.78204 -0.0901,1.78204 0.091,0 0.21952,0.48138 0.28571,1.06974 0.17149,1.52423 0.63155,2.2896 1.37628,2.2896 0.5064,0 0.70649,-0.20924 0.98857,-1.03379 z m 89.02662,0.69786 c 0,-0.18477 -0.085,-0.33594 -0.18898,-0.33594 -0.10393,0 -0.18897,0.15117 -0.18897,0.33594 0,0.18476 0.085,0.33593 0.18897,0.33593 0.10394,0 0.18898,-0.15117 0.18898,-0.33593 z m -8.1192,-1.36627 c 0.16261,-0.54016 0.14213,-0.87593 -0.0922,-1.5117 -0.36743,-0.99683 -0.73627,-1.03631 -1.24432,-0.13319 -0.36638,0.65133 -0.35675,0.96272 0.0595,1.91937 0.28764,0.66111 1.04435,0.49847 1.27706,-0.27448 z m 22.99194,-0.22942 c 0.0664,-0.32334 0.27633,-0.94841 0.46651,-1.38904 0.71605,-1.65904 0.20028,-3.81794 -0.91213,-3.81794 -0.92209,0 -1.59222,2.44468 -0.93564,3.41333 0.14471,0.21351 0.36763,0.8367 0.49536,1.38487 0.25812,1.10774 0.70046,1.31184 0.8859,0.40878 z m -48.56448,-1.62018 c 0.897116,-0.9346 1.256096,-2.06222 1.071866,-3.36703 -0.21388,-1.51486 -1.073376,-1.84491 -2.501676,-0.96064 -1.08012,0.6687 -1.35091,1.19959 -1.35091,2.64849 0,2.49551 1.26428,3.25896 2.78072,1.67918 z m -21.94286,0.2713 c 0.45572,-0.54093 0.6251,-1.60768 0.38928,-2.45166 -0.45109,-1.61437 -2.01454,-1.04716 -2.01454,0.73087 0,1.38968 1.00645,2.45529 1.62526,1.72079 z m 75.06506,-1.02897 c 0.0454,-0.54834 -0.0368,-0.72954 -0.33071,-0.72954 -0.25325,0 -0.39109,0.21705 -0.39109,0.61588 0,1.27709 0.61744,1.37432 0.7218,0.11366 z m 26.30182,-0.0577 c 0.54265,-0.96466 0.52248,-3.42974 -0.0356,-4.35406 -0.71153,-1.1784 -1.45566,-0.86292 -2.0592,0.87302 -0.35153,1.01113 -0.37234,1.28125 -0.16675,2.16362 0.45086,1.9349 1.55304,2.57695 2.26159,1.31742 z m -27.40157,-1.49604 c 0,-0.71091 -0.59426,-2.57489 -0.88388,-2.77246 -0.15147,-0.10332 -0.36699,-0.025 -0.47894,0.17399 -0.22762,0.40463 0.0938,2.12658 0.54748,2.93307 0.29129,0.51782 0.81534,0.30276 0.81534,-0.3346 z m -111.49608,0.1523 c 0,-0.18476 -0.085,-0.33593 -0.18897,-0.33593 -0.10394,0 -0.18898,0.15117 -0.18898,0.33593 0,0.18476 0.085,0.33593 0.18898,0.33593 0.10393,0 0.18897,-0.15117 0.18897,-0.33593 z m 155.85828,-3.89462 c 0.76915,-1.53021 0.48705,-3.11016 -0.70698,-3.95944 -0.42087,-0.29936 -0.84555,-0.54429 -0.94375,-0.54429 -0.25963,0 -0.50717,0.97521 -0.65773,2.59129 -0.11614,1.24645 -0.0725,1.52113 0.36552,2.29973 0.59701,1.06129 1.2836,0.92443 1.94294,-0.38729 z m -47.4977,0.2111 c 0.25945,-0.17536 0.61308,-0.80475 0.78584,-1.39865 0.2952,-1.01478 0.29371,-1.14213 -0.0248,-2.11402 -0.4649,-1.41875 -0.87905,-2.01553 -1.75565,-2.52981 -1.55993,-0.915173 -2.76858,0.37317 -2.72816,2.90801 0.0427,2.67748 1.9824,4.31068 3.72272,3.13447 z m 15.04296,0.32418 c 0.3129,0 0.74679,-1.05626 0.93772,-2.28267 0.10654,-0.68455 0.46151,-1.77374 0.7888,-2.42041 0.5411,-1.06912 1.86208,-5.553438 1.86208,-6.321138 0,-0.17509 0.34269,-0.32676 0.76156,-0.33703 1.00087,-0.0246 2.71529,-0.92391 3.02473,-1.58673 0.35471,-0.75976 0.30106,-2.26248 -0.11701,-3.27763 -0.43172,-1.04834 -1.61771,-1.97767 -2.42661,-1.9015 -0.94809,0.0893 -0.97224,0.056 -1.22317,-1.68436 -0.41848,-2.90265 -1.38459,-4.3758 -2.8697,-4.3758 -1.06376,0 -2.01783,1.0953 -2.4593,2.82337 -0.45003,1.76152 -0.44288,2.69786 0.0349,4.56718 0.49988,1.95594 0.35941,5.35086 -0.23276,5.62614 -0.51084,0.23747 -1.29574,2.771525 -1.29574,4.183268 0,0.79684 0.17668,1.57923 0.54025,2.39251 0.29713,0.66465 0.64728,1.88813 0.77813,2.71883 0.23909,1.5181 0.86322,2.36624 1.48448,2.01732 0.13841,-0.0777 0.32368,-0.14135 0.41169,-0.14135 z m -20.43561,-0.37127 c 1.08422,-0.67188 1.24863,-2.10353 0.41231,-3.59019 -0.80526,-1.43152 -1.22765,-1.52204 -1.8991,-0.40704 -0.67791,1.12572 -0.7495,2.55129 -0.18244,3.63329 0.43255,0.82532 0.7966,0.9047 1.66923,0.36394 z m 40.56822,-1.12517 c 0.5627,-1.00026 0.58466,-1.64817 0.0859,-2.53477 -0.8424,-1.49748 -2.29504,-0.31811 -1.94148,1.57625 0.15479,0.82936 0.80719,1.76383 1.2414,1.77814 0.0827,0.003 0.35906,-0.36611 0.61417,-0.81962 z m 39.77095,-1.20158 c 0,-0.79233 -0.49975,-1.25104 -0.7937,-0.72851 -0.29395,0.52253 -0.0359,1.41092 0.40981,1.41092 0.25988,0 0.38389,-0.22044 0.38389,-0.68241 z M 2.2299201,103.75212 c 0.50219,-0.89272 0.13731,-2.62029 -0.55343,-2.62029 -0.38961,0 -0.92059,0.87192 -0.92059,1.5117 0,1.17503 1.00953,1.93429 1.47402,1.10859 z m 206.7472499,0.10803 c 0.13901,-0.15664 0.22405,-0.64562 0.18898,-1.08664 -0.0477,-0.59977 -0.1822,-0.80184 -0.53363,-0.80184 -0.53434,0 -0.73622,0.91783 -0.37301,1.69581 0.26132,0.55975 0.36677,0.58806 0.71766,0.19267 z m -73.67762,-0.86456 c 0.38047,-0.81491 0.057,-1.91972 -0.52675,-1.79931 -0.50942,0.10508 -0.73034,0.86082 -0.527,1.80281 0.1351,0.62586 0.76092,0.62378 1.05375,-0.003 z m 61.24054,-0.362 c 0.32766,-0.70186 -0.0493,-2.17363 -0.55682,-2.17363 -0.52811,0 -0.99368,1.27487 -0.75504,2.06755 0.22634,0.75173 0.98189,0.81283 1.31186,0.10608 z m -47.09756,-0.22521 c 0.28705,-0.5103 0.2911,-1.36373 0.009,-1.86551 -0.29118,-0.51759 -0.91593,0.0755 -0.91593,0.86953 0,0.57303 0.33473,1.3991 0.56693,1.3991 0.0624,0 0.21543,-0.1814 0.34016,-0.40312 z M 12.99732,101.95262 c 0.41846,-0.52103 0.56276,-1.93701 0.27537,-2.702123 -0.18479,-0.49198 -0.89449,-1.14208 -1.24677,-1.14208 -0.91495,0 -1.17808,2.552703 -0.37839,3.670903 0.59639,0.83393 0.79838,0.85986 1.34979,0.1733 z m 170.46095,-0.55204 c 0.50219,-0.89272 0.13731,-2.620293 -0.55343,-2.620293 -0.38961,0 -0.92058,0.87192 -0.92058,1.511713 0,1.17503 1.00953,1.93428 1.47401,1.10858 z m -44.13178,-1.696473 c 0.13404,-0.68307 -0.0664,-1.25975 -0.43792,-1.25975 -0.41663,0 -0.63025,0.52383 -0.48604,1.19186 0.1289,0.597123 0.81029,0.647193 0.92396,0.0679 z m 8.50029,-0.63943 c 0.72675,-1.526765 0.14226,-3.985285 -0.94488,-3.974525 -0.60609,0.006 -0.81291,0.22112 -1.2124,1.26108 -0.38451,1.00092 -0.23068,2.278225 0.37667,3.127475 0.57537,0.804553 1.27837,0.641093 1.78061,-0.41403 z m 42.43464,0.32029 c 0.31898,-0.56701 0.28203,-2.330575 -0.0674,-3.217405 -0.34836,-0.8841 -1.13139,-0.9846 -1.74252,-0.22367 -0.50961,0.63451 -0.56587,2.329005 -0.10724,3.229865 0.35934,0.70587 1.56423,0.838613 1.91716,0.21121 z m 22.86635,-1.13719 c 0.0701,-1.277105 -0.34299,-1.975005 -0.99645,-1.683465 -0.29295,0.13071 -0.51697,0.52891 -0.59048,1.04968 -0.16401,1.161625 0.22859,1.895955 0.947,1.771335 0.49816,-0.0864 0.59131,-0.25201 0.63993,-1.13755 z m -203.3962001,0.0871 c 0.15929,-0.38723 0.2721601,-0.45854 0.3202101,-0.2023 0.0945,0.50376 1.05819,0.51658 1.33877,0.0178 0.15748,-0.27995 0.0681,-0.38345 -0.34488,-0.39922 -0.5042,-0.0192 -0.51869,-0.0491 -0.15163,-0.312405 0.63844,-0.45791 0.65597,-0.77896 0.17668,-3.23621 -0.46131,-2.36505 -0.88699,-3.13334 -1.7419001,-3.14383 -0.47226,-0.006 -1.01386,1.30438 -1.01386,2.4526 0,0.44084 -0.0905,1.2631 -0.20115,1.82723 -0.1424298,0.72634 -0.1420498,1.41578 10e-4,2.362245 0.18345,1.21113 0.25725,1.33164 0.78645,1.28433 0.3212,-0.0287 0.6947,-0.32133 0.83,-0.65025 z m 9.2505801,-0.25518 c -0.0608,-0.17501 -0.19118,-0.2297 -0.28963,-0.12154 -0.0984,0.10816 -0.12922,0.33985 -0.0684,0.51486 0.0608,0.17501 0.19118,0.22971 0.28963,0.12154 0.0985,-0.10816 0.12922,-0.33985 0.0684,-0.51486 z m 157.41379,-0.835145 c 0.4671,-0.83032 0.38232,-2.71655 -0.14995,-3.33652 -0.81632,-0.95082 -2.0139,0.57392 -1.72439,2.19545 0.2842,1.591825 1.27982,2.197935 1.87434,1.14107 z m -26.72664,-2.81484 c 0,-0.19389 0.2934,-0.35254 0.65202,-0.35254 0.42341,0 0.71664,-0.20523 0.8363,-0.58533 0.10135,-0.32194 0.33398,-0.58649 0.51695,-0.58789 0.23578,-0.002 0.70771,-1.30308 1.62039,-4.46809 1.45998,-5.06292 1.61123,-6.66359 0.89496,-9.47071 -0.21145,-0.82869 -0.36554,-1.96246 -0.34243,-2.51951 0.0231,-0.55704 -0.0225,-1.80569 -0.10144,-2.77477 -0.13068,-1.6051 -0.0992,-1.8554 0.35344,-2.81172 0.60216,-1.2721 0.94912,-2.43253 1.34128,-4.48581 0.26668,-1.3964 0.26804,-1.82278 0.0134,-4.2229 -0.19325,-1.82135 -0.44389,-3.04406 -0.78877,-3.84785 -0.48686,-1.13464 -0.55106,-1.17817 -1.738,-1.17817 -1.71466,0 -2.74392,0.9459 -3.46673,3.18595 -0.29906,0.92681 -0.54454,2.1764 -0.5455,2.77688 0,0.60049 -0.0898,1.09179 -0.19741,1.09179 -0.13226,0 -0.12975,0.21883 0.008,0.67567 0.11188,0.37162 0.18229,0.86292 0.15644,1.09178 -0.0659,0.58343 0.18521,2.16339 0.60262,3.79222 0.33423,1.30424 0.32688,2.83868 -0.0136,2.83868 -0.0848,0 -0.2082,0.30234 -0.27417,0.67187 -0.15645,0.87627 -0.47244,0.86606 -0.47244,-0.0152 0,-0.87726 -0.81328,-2.33627 -1.30227,-2.33627 -0.28445,0 -0.38882,-0.26265 -0.43378,-1.09179 -0.0494,-0.91035 -0.14576,-1.10948 -0.57999,-1.19826 -0.67385,-0.13779 -0.87747,0.73417 -0.46775,2.00318 0.17574,0.54438 0.22945,1.02637 0.12691,1.13902 -0.31457,0.34561 -0.18943,2.39022 0.20019,3.27072 0.20787,0.46978 0.37795,0.99521 0.37795,1.16762 0,0.17241 -0.35074,0.94955 -0.77945,1.72698 -0.71883,1.3036 -0.7719,1.52325 -0.68228,2.82491 0.0534,0.77628 0.15815,1.67596 0.23272,1.9993 0.0944,0.40932 0.0474,0.58788 -0.15464,0.58788 -0.15963,0 -0.59178,0.50556 -0.96034,1.12348 -0.59225,0.99293 -0.65146,1.23918 -0.50948,2.11921 0.25903,1.60554 0.73253,3.03228 1.24339,3.74663 0.29507,0.41257 0.47622,1.00475 0.47622,1.55663 0,1.32187 0.82422,2.64761 1.53135,2.46312 0.31023,-0.0809 0.5983,-0.0486 0.6402,0.0719 0.13211,0.37998 1.98593,0.4 1.98593,0.0214 z m -2.13721,-9.68792 c -0.36138,-0.70986 -0.1189,-1.41451 0.48677,-1.41451 0.27123,0 0.33889,0.20741 0.29291,0.89791 -0.0748,1.12278 -0.37111,1.31913 -0.77968,0.5166 z m 0.45133,-8.06903 c -0.008,-0.25154 -0.11601,-0.33828 -0.25113,-0.20267 -0.18754,0.18821 -0.18818,0.14499 -0.003,-0.20973 0.2688,-0.51529 0.51513,-0.24036 0.36846,0.41123 -0.0815,0.36212 -0.10193,0.36232 -0.11417,10e-4 z m 44.61194,17.37738 c 0.20984,-0.19964 0.50575,-0.89154 0.6576,-1.53757 0.2495,-1.06147 0.2434,-1.29341 -0.0632,-2.40848 -0.60632,-2.20475 -1.85364,-2.60373 -2.81229,-0.89957 -1.01534,1.80491 -0.23254,5.20859 1.1979,5.20859 0.35117,0 0.81018,-0.16334 1.02002,-0.36297 z m -14.28756,-2.4772 c 0.94728,-1.68392 0.44997,-4.46745 -0.90495,-5.06523 -0.43,-0.18971 -0.63145,-0.0278 -1.1811,0.94931 -0.72312,1.28545 -0.81141,2.11104 -0.38321,3.58308 0.3209,1.10312 0.51932,1.29412 1.38264,1.33088 0.42307,0.018 0.77152,-0.23791 1.08662,-0.79804 z m -36.55584,-3.24164 c 0.30057,-0.53429 0.36966,-0.95567 0.28299,-1.72599 -0.0802,-0.71312 -0.0272,-1.13287 0.17679,-1.39797 0.24628,-0.32012 0.25928,-0.64553 0.0839,-2.0991 -0.1986,-1.64611 -0.24276,-1.73778 -1.02492,-2.12706 -0.91158,-0.45372 -1.45941,-0.1495 -1.80642,1.00317 -0.25578,0.84959 -0.0513,2.27804 0.38555,2.69366 0.26031,0.24766 0.33403,0.6827 0.30916,1.82459 -0.025,1.15011 0.0553,1.61759 0.34511,2.00679 0.51426,0.69079 0.78042,0.6528 1.24781,-0.17809 z m 25.85021,-2.44193 c 0.3117,-0.66763 0.051,-1.55428 -0.45704,-1.55428 -0.50326,0 -0.68069,0.58125 -0.43577,1.42772 0.2039,0.70476 0.59686,0.76046 0.89281,0.12656 z m 2.08411,-3.76772 c 0.79261,-1.18555 0.80389,-2.81774 0.0291,-4.19515 -0.85181,-1.51424 -2.21842,-1.14584 -2.76887,0.74643 -0.4028,1.38463 -0.32959,2.2473 0.28311,3.33646 0.72402,1.28707 1.64322,1.32908 2.45671,0.11226 z M 1.4740101,79.900762 c 0.31557,-0.56097 0.28296,-1.44732 -0.0725,-1.97179 -0.58913,-0.86915 -1.3273701,0.81543 -0.8270201,1.88714 0.2769301,0.59317 0.5965701,0.62325 0.8995501,0.0846 z M 142.1875,78.837272 c 0.15562,-1.47454 0.002,-2.12082 -0.56725,-2.37445 -0.68799,-0.30695 -1.20783,0.30251 -1.05277,1.2343 0.22082,1.32711 0.67578,2.27082 1.09474,2.27082 0.31124,0 0.43379,-0.26379 0.52528,-1.13067 z m 19.94052,-0.0904 c 0.21541,-0.48683 0.39167,-1.12103 0.39167,-1.40934 0,-0.28831 0.23386,-0.95783 0.51969,-1.48783 0.48523,-0.89976 0.5272,-1.21267 0.63326,-4.72146 0.0624,-2.0668 0.0775,-3.93315 0.0336,-4.14743 -0.28305,-1.37846 -2.21407,-0.1802 -2.4429,1.51591 -0.066,0.48911 -0.32054,1.50726 -0.56566,2.26255 -0.25417,0.78319 -0.44856,1.93794 -0.45237,2.68747 -0.004,0.72282 -0.12822,1.69215 -0.27676,2.15406 -0.63188,1.9649 -0.0539,4.03121 1.12749,4.03121 0.4667,0 0.74657,-0.24004 1.03202,-0.88514 z m 35.06477,0.005 c 0.36834,-0.65476 0.31306,-1.43252 -0.13767,-1.9371 -0.7062,-0.79058 -1.46103,1.16427 -0.78757,2.03966 0.43844,0.56992 0.55417,0.55709 0.92524,-0.10256 z m 12.94192,-0.43979 c 0.14738,-0.48955 0.12255,-0.7778 -0.10133,-1.17577 -0.33836,-0.6015 -0.32651,-0.59623 -0.72658,-0.32332 -0.29726,0.20276 -0.41352,1.49601 -0.17293,1.92367 0.25107,0.44633 0.81003,0.20921 1.00084,-0.42458 z M 8.2199299,77.955862 c 0.1542,-0.86361 -0.0212,-1.34674 -0.4889898,-1.34674 -0.41384,0 -0.64868,0.73728 -0.4815,1.5117 0.15807,0.73228 0.83071,0.61795 0.9704898,-0.16496 z m 195.5635101,-2.1799 c 0.14765,-0.68395 -0.34042,-1.6615 -0.70528,-1.41261 -0.48535,0.33107 -0.60488,1.27275 -0.22435,1.76737 0.3702,0.48122 0.78319,0.32362 0.92963,-0.35476 z m -13.49176,0.009 c 0.38789,-0.83084 0.15995,-1.69581 -0.44689,-1.69581 -0.67762,0 -1.04956,0.8869 -0.69258,1.65151 0.31037,0.66478 0.84017,0.68538 1.13947,0.0443 z m -13.70676,-0.712 c 0.16333,-0.29036 0.29698,-0.73307 0.29698,-0.98382 0,-0.43423 -0.48992,-1.51171 -0.68735,-1.51171 -0.35854,0 -0.82446,0.82302 -0.82446,1.45634 0,1.4331 0.67056,2.00671 1.21483,1.03917 z m 44.32847,-2.49553 c 0.45404,-0.80712 0.47972,-1.60785 0.0838,-2.61272 -0.58614,-1.4876 -1.97353,-0.54295 -1.97353,1.34373 0,0.80184 0.66542,1.94086 1.13386,1.94086 0.20787,0 0.54803,-0.30234 0.7559,-0.67187 z m -42.44058,-1.04633 c 1.07154,-1.49832 0.10959,-4.93071 -1.1595,-4.13732 -1.1421,0.71401 -1.29143,3.4694 -0.2393,4.41571 0.64116,0.57668 0.81156,0.54277 1.3988,-0.27839 z m 14.31547,-0.51744 c 0.44476,-0.71552 0.43644,-1.20934 -0.0331,-1.96477 -0.31293,-0.50342 -0.46065,-0.5429 -0.8504,-0.22724 -0.56154,0.45484 -0.6448,1.86346 -0.14095,2.38514 0.46044,0.47673 0.6277,0.44519 1.02449,-0.19313 z m -22.99358,-3.23905 c 1.13401,-2.01587 1.34192,-4.97639 0.47302,-6.73558 -0.64206,-1.29994 -0.68543,-1.64187 -0.28346,-2.2349 0.17163,-0.25322 0.28346,-0.98871 0.28346,-1.86438 0,-1.16223 -0.0978,-1.58291 -0.49793,-2.14244 -1.3728,-1.9196 -2.98065,0.20541 -2.63482,3.48232 0.0859,0.81416 0.0439,1.23111 -0.14359,1.42551 -0.45447,0.47116 -1.07011,3.04007 -1.07011,4.46527 0,2.52807 1.15765,4.68603 2.52283,4.70281 0.57474,0.007 0.85843,-0.22369 1.3506,-1.09861 z m 13.52693,-9.28057 c 0.9473,-1.68397 0.66814,-4.14473 -0.57394,-5.05931 -1.09522,-0.80643 -2.27524,0.72381 -2.27524,2.95049 0,1.51427 0.86751,3.09078 1.70078,3.09078 0.40678,0 0.77139,-0.31177 1.1484,-0.98196 z m -35.40686,-2.34307 c 0.57685,-1.52531 0.56426,-3.18852 -0.0322,-4.24875 -1.11312,-1.97878 -2.98747,0.22416 -2.3862,2.80456 0.34257,1.47019 1.13036,2.80608 1.58566,2.68888 0.22056,-0.0568 0.59528,-0.61689 0.83271,-1.24469 z m 27.77151,-0.15501 c 0.2938,-0.43592 0.78932,-1.0351 1.10113,-1.33152 0.31181,-0.29643 0.97869,-1.18802 1.48197,-1.98133 0.76728,-1.20946 0.91824,-1.64258 0.93481,-2.68227 0.0274,-1.71993 -0.36098,-2.83056 -1.19813,-3.426 -0.73542,-0.52308 -1.6231,-0.32572 -2.17105,0.48269 -0.1399,0.20639 -0.48445,1.61106 -0.76568,3.1215 -0.28122,1.51044 -0.66875,3.10678 -0.86118,3.54741 -0.44743,1.02453 -0.44119,1.55604 0.0281,2.39022 0.49103,0.87289 0.79759,0.84738 1.45005,-0.1207 z m -13.58379,-0.86161 c 1.06129,-0.68957 1.59454,-1.55225 2.03376,-3.29006 0.40351,-1.59654 0.3354,-2.64791 -0.24648,-3.80549 -0.9878,-1.96509 -2.88858,-1.68547 -3.55774,0.52336 -0.33547,1.10738 -0.33347,1.18667 0.0956,3.755 0.24109,1.44305 0.4676,2.81269 0.50336,3.04365 0.0809,0.52261 -0.008,0.53975 1.17148,-0.22646 z m 35.55927,-0.51326 c 0.50201,-1.07526 -0.23532,-2.72703 -0.8901,-1.99401 -0.65429,0.73247 -0.42119,2.48178 0.33071,2.48178 0.18242,0 0.43415,-0.21949 0.55939,-0.48777 z m -43.83498,-1.14144 c 0.25984,-0.3315 0.74882,-1.32699 1.08661,-2.2122 0.70233,-1.84048 0.81806,-3.88944 0.31697,-5.61198 -0.27233,-0.93616 -0.27095,-1.07324 0.0166,-1.63799 0.17258,-0.33898 0.28407,-0.89039 0.24779,-1.22535 -0.0973,-0.89824 -0.73512,-0.97513 -1.09298,-0.13176 -0.28969,0.68271 -0.33876,0.69435 -0.86621,0.20542 -0.74828,-0.6936 -1.32428,-0.65574 -2.25882,0.14848 -1.02142,0.87899 -1.51355,2.12 -1.92246,4.84787 -0.37177,2.48019 -0.28412,3.07745 0.55971,3.81406 0.27128,0.23682 0.64953,0.76592 0.84055,1.17577 0.19102,0.40985 0.51396,0.93278 0.71766,1.16208 0.4779,0.53795 1.73828,0.2519 2.35461,-0.5344 z m 37.20346,-0.21843 c 0.40267,-0.64667 0.90914,-1.17577 1.1255,-1.17577 1.10519,0 1.97454,-1.82212 1.97454,-4.13853 0,-3.86318 -2.90816,-3.71898 -3.64964,0.18098 -0.16547,0.87023 -0.55278,1.9222 -0.89764,2.43805 -0.74119,1.10863 -0.82192,2.55708 -0.18662,3.34809 0.60208,0.74966 0.81307,0.66536 1.63386,-0.65282 z m 19.83467,-0.47691 c 0.0794,-0.94561 -0.27874,-1.70666 -0.803,-1.70666 -0.56029,0 -0.86505,0.61923 -0.86505,1.75768 0,1.83748 1.51345,1.79118 1.66805,-0.051 z m -6.86589,0.76703 c 0.44419,-0.303 0.70711,-1.69747 0.46912,-2.48799 -0.31111,-1.03341 -0.8472,-1.39066 -1.40674,-0.93746 -1.31157,1.06231 -0.41261,4.34651 0.93762,3.42545 z m 19.40302,-0.20614 c 0.75936,-1.08763 0.37277,-2.93942 -0.61364,-2.93942 -0.77794,0 -1.12024,1.28184 -0.66911,2.50575 0.34265,0.92964 0.82308,1.09206 1.28275,0.43367 z m -53.17617,-2.90627 c 1.23651,-1.11463 1.74264,-2.36507 1.74264,-4.30529 0,-3.02366 -2.59534,-4.90566 -4.5148,-3.27389 -0.59928,0.50944 -0.84591,0.98341 -1.08464,2.08437 -0.56293,2.59602 -0.14557,4.73106 1.16169,5.94279 0.81959,0.7597 1.47649,0.65051 2.69511,-0.44798 z m 50.92374,-0.97611 c 0.44317,-0.67659 0.41894,-2.25953 -0.0472,-3.08825 -0.78841,-1.40151 -2.08129,-0.47986 -2.07585,1.47979 0.004,1.30085 0.16652,1.76372 0.75834,2.15461 0.52084,0.34401 0.87436,0.20254 1.36475,-0.54615 z m -80.74015,-1.89265 c 0,-0.0815 -0.085,-0.24157 -0.18898,-0.35576 -0.10394,-0.11419 -0.18898,-0.0475 -0.18898,0.14814 0,0.19566 0.085,0.35576 0.18898,0.35576 0.10394,0 0.18898,-0.0667 0.18898,-0.14814 z m 28.81687,-11.60658 c 0.47395,-0.69924 0.73279,-2.32062 0.50952,-3.19172 -0.72822,-2.84115 -3.06391,-2.07999 -3.05611,0.99594 0.004,1.71463 0.2037,2.48281 0.72573,2.7966 0.52006,0.31263 1.39808,0.0229 1.82086,-0.60082 z m -14.06706,-0.0202 c 0.44387,-0.78902 0.36129,-1.83499 -0.21505,-2.72414 -0.26064,-0.40209 -0.36154,-1.00006 -0.36154,-2.14268 0,-3.64332 -2.63939,-8.47409 -3.94919,-7.22801 -0.61562,0.5857 -1.28681,3.03076 -1.41762,5.16422 -0.14869,2.42529 0.25506,4.25807 1.29592,5.88263 0.67393,1.05185 0.77985,1.10784 1.77956,0.94073 0.72905,-0.12187 1.21139,-0.0284 1.53543,0.29741 0.64435,0.64796 0.87993,0.61434 1.33249,-0.19016 z m -7.79548,-0.05 c 0.36725,-0.65287 0.27027,-2.19208 -0.17288,-2.74387 -0.6628,-0.82525 -1.29288,-0.10496 -1.29825,1.48411 -0.004,1.03923 0.31435,1.66288 0.84751,1.66288 0.21826,0 0.49889,-0.18141 0.62362,-0.40312 z m 14.77585,-0.77073 c 1.18708,-1.09123 1.49902,-3.4066 0.67253,-4.99188 -0.4947,-0.94891 -1.33712,-1.1772 -2.00373,-0.543 -0.50245,0.47803 -0.97221,2.21073 -0.97221,3.58605 0,2.18472 1.06584,3.08648 2.30341,1.94883 z M 19.56682,33.922622 c 0.17392,-0.50026 -0.0277,-0.77224 -0.38955,-0.52543 -0.16697,0.11391 -0.25066,0.35934 -0.18597,0.54541 0.15318,0.44059 0.4186,0.43137 0.57552,-0.02 z m 162.90099,-0.13494 c 0.20177,-0.27126 0.6007,-0.49802 0.88653,-0.5039 1.083,-0.0223 1.70035,-2.65071 0.96283,-4.09942 -0.38453,-0.75531 -0.58129,-0.7603 -2.2138,-0.0561 -1.1699,0.50462 -1.32399,0.66966 -1.55905,1.66976 -0.33837,1.43958 -0.33281,1.55001 0.13082,2.59776 0.44449,1.00455 1.21221,1.17239 1.79267,0.39192 z m -5.93994,-2.11027 c 0.24907,-0.32333 0.62196,-0.7543 0.82864,-0.9577 0.81931,-0.80631 0.44897,-3.15749 -0.49735,-3.15749 -0.37198,0 -1.48907,2.7428 -1.48907,3.65613 0,1.18934 0.45598,1.37014 1.15778,0.45906 z m 14.4723,-0.68757 c 1.04493,-0.4059 1.72195,-1.22371 1.86771,-2.2561 0.28751,-2.03635 -0.49066,-3.85899 -1.64757,-3.85899 -0.64016,0 -0.81043,0.21369 -1.76644,2.2169 -0.81528,1.70834 -1.03037,2.38265 -0.93762,2.93942 0.17355,1.04202 0.67181,1.63051 1.21604,1.43633 0.25984,-0.0927 0.83038,-0.30761 1.26788,-0.47756 z M 2.2050001,30.727552 c 0.0629,-0.29148 -0.0205,-0.76979 -0.18543,-1.06293 -0.24712,-0.43931 -0.3513,-0.45702 -0.59277,-0.10079 -0.52026,0.76756 -0.3131,1.58667 0.42165,1.66714 0.13318,0.0146 0.29363,-0.21195 0.35655,-0.50342 z M 197.19686,29.409862 c 0,-0.36447 -0.13813,-0.70995 -0.30694,-0.76775 -0.32751,-0.11212 -0.61962,0.78083 -0.43196,1.32056 0.19257,0.55388 0.7389,0.14513 0.7389,-0.55281 z m 13.54418,-0.0521 c 0.49648,-0.79873 0.45507,-2.62895 -0.0744,-3.28823 -0.56529,-0.70383 -1.01573,-0.65819 -1.46976,0.14892 -1.078,1.9163 0.41618,4.95397 1.54418,3.13931 z m 3.10312,-1.96354 c 0.28676,-0.77798 0.28676,-0.90169 0,-1.67967 -0.39033,-1.05896 -1.12031,-1.10377 -1.51848,-0.0932 -0.37858,0.96083 -0.37119,1.1321 0.0838,1.94086 0.51168,0.90958 1.06126,0.84523 1.43471,-0.16797 z m -88.67578,-0.32517 c 0.13328,-0.6174 -0.22105,-1.04532 -0.48176,-0.58185 -0.20171,0.35858 -0.0566,1.07499 0.2177,1.07499 0.0867,0 0.20551,-0.22191 0.26406,-0.49314 z m 59.24481,-0.86508 c 1.42638,-1.22507 1.91662,-3.75309 1.15718,-5.96734 -0.53492,-1.55966 -1.29865,-2.07094 -2.37069,-1.58706 -0.46381,0.20934 -0.96595,0.59966 -1.11589,0.86736 -0.36107,0.64474 -0.50657,3.6977 -0.2242,4.70454 0.16416,0.58537 1.16022,2.10439 1.7427,2.65769 0.006,0.006 0.37138,-0.2977 0.8109,-0.67519 z m -60.33898,-3.37709 c 0.1666,-0.4792 -0.38493,-1.45962 -0.65451,-1.16346 -0.11389,0.12515 -0.20709,0.52096 -0.20709,0.87959 0,0.71352 0.63902,0.92406 0.8616,0.28387 z m 17.23177,-5.74637 c 0.16273,-0.2399 0.4114,-0.92748 0.5526,-1.52796 0.21632,-0.91995 0.21632,-1.26363 0,-2.18358 -0.35888,-1.5262 -0.80908,-2.08431 -1.68132,-2.08431 -1.88572,0 -2.54627,4.92366 -0.8342,6.21798 0.50716,0.38342 1.57179,0.15446 1.96292,-0.42213 z m 5.71555,0.23761 c 0.30034,-0.27609 0.65755,-0.7835 0.79378,-1.12758 0.13623,-0.34407 0.42612,-0.72577 0.6442,-0.84821 0.50254,-0.28214 0.83184,-1.55385 0.83184,-3.2125 0,-1.12586 -0.066,-1.32098 -0.51495,-1.52125 -0.3122,-0.1393 -0.54175,-0.0867 -0.58306,0.13364 -0.0375,0.19986 -0.14652,0.27728 -0.24231,0.17203 -0.0958,-0.10524 -0.22518,0.045 -0.28755,0.33384 -0.0671,0.31068 -0.33915,0.5252 -0.66614,0.5252 -0.76885,0 -1.79344,0.81935 -2.03724,1.62914 -0.51842,1.72197 -0.10944,3.76697 0.83518,4.17605 0.62164,0.26922 0.65874,0.26134 1.22625,-0.26036 z m 15.33239,-1.57717 c 2.39441,-2.39225 1.62384,-7.6553689 -1.13072,-7.7229489 -1.45714,-0.0358 -2.48304,1.724 -2.48304,4.2591889 0,3.47777 1.8372,5.23871 3.61376,3.46376 z M 23.44549,15.121362 c 0.52898,-0.50326 0.48476,-2.39178 -0.0835,-3.56617 -0.41267,-0.85285 -0.50815,-0.90196 -1.17923,-0.60662 -1.22927,0.541 -1.46784,2.32811 -0.53271,3.99045 0.33994,0.60428 1.25432,0.69715 1.79544,0.18234 z m 131.77312,-0.68443 c 0.74916,-1.04756 0.65578,-2.48526 -0.21434,-3.29992 -0.33723,-0.31574 -0.53902,-0.30758 -0.94488,0.0382 -0.43349,0.36934 -0.51608,0.6524 -0.51608,1.76898 0,1.08065 0.0884,1.40877 0.47245,1.75418 0.61553,0.55357 0.6208,0.55243 1.20285,-0.26146 z m 14.67116,-1.99122 c 0.57201,-1.01685 0.50385,-2.7979589 -0.14173,-3.7039189 -0.71295,-1.00046 -2.39397,-0.81 -2.9133,0.33007 -0.65554,1.4391289 -0.24605,3.5389589 0.74213,3.8054489 1.29776,0.34998 1.94071,0.23 2.3129,-0.4316 z m 6.47244,-1.37074 c 0.45439,-0.988329 0.41462,-1.8975889 -0.13954,-3.1890989 -0.80315,-1.8718405 -2.36933,-1.8420205 -2.94074,0.056 -0.34469,1.14491 -0.0552,2.4378089 0.76782,3.4290089 0.79058,0.95217 1.7979,0.82327 2.31246,-0.2959 z m 8.04641,-1.7871689 c 0.41096,-0.73055 0.10027,-1.7016905 -0.80019,-2.5011105 -0.63407,-0.56294 -0.93668,-0.66088 -1.29454,-0.419 -0.7906,0.53433 -0.93403,1.9801805 -0.30705,3.0947705 0.33649,0.5981499 0.53976,0.6780999 1.27109,0.4999097 0.47879,-0.1166597 0.98761,-0.4202197 1.13069,-0.6745697 z m -55.20726,-0.41506 c 0.29734,-1.3773805 -0.87487,-2.4238305 -1.26469,-1.12902 -0.16214,0.5386 -0.15961,0.83209 0.0104,1.19615 0.30537,0.65407 1.10793,0.61112 1.25433,-0.0671 z m 62.1278,-0.54223 c 0.50324,-0.60048 1.21937,-1.4240905 1.59143,-1.8302305 0.37205,-0.40615 0.78485,-1.00193 0.91731,-1.32396 0.35659,-0.86691 0.29278,-2.41199 -0.15253,-3.69281 -0.37803,-1.08735992 -0.43889,-1.13142992 -1.56257,-1.13142992 h -1.16919 l -1.36657,2.48528992 c -1.19078,2.16558 -1.36656,2.64291 -1.36656,3.71055 0,0.85297 0.14094,1.4757805 0.46384,2.0498205 0.65872,1.17093 1.51185,1.08473 2.64484,-0.26723 z M 126.40245,6.5181526 c -0.16467,-0.35274 -0.27866,-0.37157 -0.47709,-0.0788 -0.19842,0.29274 -0.20903,0.49539 -0.0443,0.84812 0.16469,0.3527405 0.27868,0.3715705 0.47711,0.0788 0.19842,-0.29274 0.20902,-0.49538 0.0443,-0.84811 z M 2.7401501,5.7270226 c 0,-0.61567 -0.11371,-0.86854 -0.42604,-0.94738 -0.25555,-0.0645 -0.47161,0.10354 -0.5399,0.41992 -0.18816,0.87164 0.0756,1.59206 0.5399,1.47484 0.31233,-0.0788 0.42604,-0.3317 0.42604,-0.94738 z m 37.6062999,0 c 0,-0.70233 -0.10077,-0.8571 -0.61547,-0.94527 -0.42574,-0.0729 -0.65072,0.0578 -0.7298,0.42419 -0.169,0.78286 0.29671,1.57759 0.85665,1.46189 0.38007,-0.0785 0.48862,-0.28756 0.48862,-0.94081 z m 158.17993,-0.0375 c 0.16872,-0.94496 -0.30442,-1.78605 -0.83601,-1.48613 -0.4389,0.24764 -0.52679,1.16209 -0.17225,1.79234 0.35453,0.63025 0.86895,0.47402 1.00826,-0.30621 z m -149.39253,-0.9703 c 0.69839,-1.24148 0.32656,-2.84957 -0.58941,-2.54908 -0.24748,0.0812 -0.58886,0.15885 -0.75863,0.17258 -0.4781,0.0387 -0.55095,1.25725 -0.13177,2.20454 0.45028,1.01761 0.97012,1.07802 1.47981,0.17196 z M 83.85826,118.04248 c 0.12992,-0.0932 0.34252,-0.0932 0.47244,0 0.12992,0.0932 0.0236,0.16944 -0.23622,0.16944 -0.25984,0 -0.36614,-0.0762 -0.23622,-0.16944 z m 0.99213,0.0937 c 0,-0.29822 0.76454,-0.45409 0.86135,-0.17561 0.0582,0.16742 -0.11178,0.3044 -0.37776,0.3044 -0.26598,0 -0.48359,-0.058 -0.48359,-0.12879 z M 67.59568,111.6674 c -0.15098,-0.26839 0.0197,-0.79298 0.25799,-0.79298 0.0978,0 0.17782,0.22676 0.17782,0.5039 0,0.51949 -0.22298,0.6674 -0.43581,0.28908 z m 36.08289,-4.41627 c -0.0505,-0.14517 0.0658,-0.26395 0.25844,-0.26395 0.19261,0 0.30891,0.11878 0.25844,0.26395 -0.0505,0.14517 -0.16677,0.26395 -0.25844,0.26395 -0.0917,0 -0.20797,-0.11878 -0.25844,-0.26395 z m 11.786,-3.61912 c 0,-0.28805 0.0864,-0.42877 0.19206,-0.31272 0.10564,0.11605 0.14313,0.35173 0.0833,0.52373 -0.16201,0.46595 -0.2754,0.37907 -0.2754,-0.21101 z m 0.23622,-1.71436 c -0.12992,-0.0932 -0.22951,-0.42139 -0.22131,-0.72933 0.009,-0.35246 0.0504,-0.40354 0.11063,-0.13788 0.0526,0.23211 0.15933,0.35213 0.23705,0.26673 0.0777,-0.0854 0.14134,0.0648 0.14134,0.33384 0,0.26902 -0.007,0.47719 -0.0157,0.4626 -0.009,-0.0146 -0.12204,-0.10277 -0.25196,-0.19596 z m 0.51969,-0.11345 c 0,-0.18476 0.0901,-0.33593 0.20013,-0.33593 0.11007,0 0.14757,0.15117 0.0833,0.33593 -0.0642,0.18476 -0.1543,0.33593 -0.20012,0.33593 -0.0458,0 -0.0833,-0.15117 -0.0833,-0.33593 z M 40.25196,97.772987 c 0,-0.184765 0.0901,-0.335935 0.20013,-0.335935 0.11007,0 0.14757,0.15117 0.0833,0.335935 -0.0642,0.18476 -0.1543,0.33593 -0.20013,0.33593 -0.0458,0 -0.0833,-0.15117 -0.0833,-0.33593 z m 0,-1.363565 c 0,-0.19567 0.085,-0.26233 0.18898,-0.14814 0.10394,0.11419 0.18898,0.27428 0.18898,0.35576 0,0.0815 -0.085,0.14814 -0.18898,0.14814 -0.10394,0 -0.18898,-0.1601 -0.18898,-0.35576 z m 76.53545,-1.34374 c 0,-0.38043 0.085,-0.59826 0.18898,-0.48407 0.10393,0.11419 0.18897,0.42545 0.18897,0.69169 0,0.26624 -0.085,0.48408 -0.18897,0.48408 -0.10394,0 -0.18898,-0.31127 -0.18898,-0.6917 z m 0.74846,0.0198 c -0.15812,-0.78115 -0.0885,-2.40653 0.11599,-2.70823 0.36567,-0.53948 0.69608,-0.0342 0.5685,0.86944 -0.0615,0.43581 -0.0178,0.82972 0.0999,0.89945 0.13068,0.0774 0.0951,0.29274 -0.0948,0.57284 -0.26095,0.38499 -0.30606,0.35937 -0.31746,-0.18025 -0.0123,-0.58531 -0.0246,-0.58234 -0.17569,0.0428 -0.0893,0.36953 -0.17771,0.59628 -0.19642,0.5039 z m -88.65792,-0.56541 c 0.13641,-0.097 0.29941,-0.0851 0.3622,0.0265 0.0628,0.11163 -0.0488,0.19102 -0.24803,0.17644 -0.22015,-0.0161 -0.26492,-0.0957 -0.11417,-0.20296 z m 2.57742,-2.72112 c -0.21293,-0.31719 -0.44671,-0.85329 -0.51953,-1.19134 -0.10294,-0.47792 -0.25419,-0.56708 -0.67995,-0.40085 -0.46213,0.18044 -0.65382,0.0193 -1.22851,-1.03258 -0.37451,-0.6855 -0.68093,-1.36417 -0.68093,-1.50814 0,-0.14397 -0.14882,-0.35797 -0.33071,-0.47556 -0.18189,-0.11758 -0.56662,-0.71958 -0.85496,-1.33778 -0.49298,-1.05696 -0.51148,-1.21085 -0.31023,-2.5803 0.11772,-0.80097 0.22607,-1.98541 0.24079,-2.63208 0.023,-1.00813 0.0983,-1.19049 0.52868,-1.27902 0.35675,-0.0734 0.53705,-0.35205 0.62337,-0.96346 0.14125,-1.00038 -0.0297,-1.48609 -0.27489,-0.78093 -0.35461,1.01996 -0.41461,-0.0658 -0.11918,-2.15652 0.16949,-1.1994 0.30816,-2.96937 0.30816,-3.93326 0,-1.65661 -0.49265,-4.29667 -0.80529,-4.31551 -0.19367,-0.0117 -2.37614,-2.67062 -2.51141,-3.05971 -0.0589,-0.16956 -0.27874,-0.3083 -0.48841,-0.3083 -0.56102,0 -3.23426,-4.93343 -3.23426,-5.96878 0,-0.59469 -0.14644,-0.90487 -0.54331,-1.15081 -0.29882,-0.18517 -0.54447,-0.51086 -0.54589,-0.72374 -0.002,-0.21288 -0.0509,-0.70719 -0.10999,-1.09847 -0.0858,-0.56816 -0.008,-0.74512 0.38504,-0.87877 0.27085,-0.092 0.53483,-0.0455 0.58661,0.10347 0.26115,0.75115 2.01888,-1.22568 2.0643,-2.32162 0.0373,-0.90088 0.63093,-2.07051 1.05079,-2.07051 0.21037,0 0.36527,0.3575 0.43905,1.01335 0.0752,0.66864 0.27611,1.1229 0.59055,1.33542 0.64285,0.43447 0.60017,1.02214 -0.18487,2.5457 -0.46306,0.89868 -0.66142,1.60095 -0.66142,2.3417 0,1.56478 0.49167,2.16999 1.76291,2.16999 0.8447,0 1.07174,0.11094 1.07174,0.52373 0,0.28805 0.0754,0.44088 0.16756,0.33963 0.0922,-0.10126 0.27265,0.041 0.40109,0.31611 0.12844,0.27511 0.3464,0.5002 0.48435,0.5002 0.15589,0 0.33558,0.76589 0.47479,2.02378 0.12319,1.11309 0.29755,2.10462 0.38746,2.2034 0.0899,0.0988 0.16349,0.46223 0.16349,0.80766 0,0.34542 0.1063,0.82781 0.23622,1.07196 0.81093,1.52393 1.25452,3.2626 1.39887,5.48292 0.0841,1.29335 0.14286,2.53888 0.13062,2.76785 -0.0122,0.22896 0.0532,0.33342 0.14539,0.23212 0.0922,-0.1013 0.16764,-0.033 0.16764,0.15176 0,0.59913 -0.32906,0.71713 -0.56866,0.20392 -0.59988,-1.28491 -1.86387,0.0292 -1.52993,1.59057 0.20042,0.93709 0.46681,1.2048 1.137,1.14264 0.28358,-0.0263 0.47225,-0.27198 0.50391,-0.65616 0.0851,-1.0329 0.24648,-1.56945 0.47196,-1.56945 0.12019,0 0.16356,0.23888 0.0983,0.5413 -0.0862,0.39917 -0.0363,0.48638 0.1898,0.33213 0.22006,-0.15012 0.2757,-0.0658 0.19705,0.29853 -0.0603,0.27924 -0.0352,0.50771 0.0557,0.50771 0.0909,0 0.22612,0.79364 0.30043,1.76365 0.0743,0.97001 0.29555,2.49027 0.49164,3.37836 l 0.35651,1.6147 -0.4532,1.07277 c -0.24927,0.59002 -0.54078,1.82027 -0.64782,2.73388 -0.21498,1.83498 -0.034,2.647 0.76577,3.43661 0.41822,0.41289 0.4154,0.4214 -0.14011,0.42212 -0.31181,3.3e-4 -0.74114,-0.2588 -0.95407,-0.57599 z M 19.46456,57.492322 c 0,-0.16747 0.17008,-0.22543 0.37796,-0.12879 0.20787,0.0966 0.37795,0.23365 0.37795,0.30448 0,0.0708 -0.17008,0.12879 -0.37795,0.12879 -0.20788,0 -0.37796,-0.13702 -0.37796,-0.30448 z m -9.04632,-9.17981 -0.6368701,-0.70271 0.6368701,-0.6033 c 1.04322,-0.98822 1.3311,-0.84559 1.26246,0.6255 -0.0702,1.5052 -0.36906,1.66628 -1.26246,0.68051 z m 15.28254,-19.07011 c 0,-0.18476 0.085,-0.33593 0.18898,-0.33593 0.10394,0 0.18898,0.15117 0.18898,0.33593 0,0.18477 -0.085,0.33594 -0.18898,0.33594 -0.10394,0 -0.18898,-0.15117 -0.18898,-0.33594 z M 106.29921,9.4222931 c -0.0642,-0.18476 -0.31796,-0.33594 -0.56383,-0.33594 -0.48974,0 -3.1212,-4.4272805 -3.1212,-5.2512305 0,-0.2528 -0.0879,-0.45965 -0.19536,-0.45965 -0.10744,0 -0.37695,-0.54715 -0.59891,-1.21589 -0.22196,-0.66874 -0.66555,-1.41866992 -0.98575,-1.66651992 -0.5095,-0.39437 -0.0433,-0.45227 3.73398,-0.46378 4.04277,-0.0123 4.33603,0.0281 4.62992,0.63851 0.50729,1.05360992 1.7507,0.95334992 1.99115,-0.16054 0.0764,-0.35384 0.385,-0.47833 1.10407,-0.44537 0.54894,0.0252 0.81667,0.10894 0.59498,0.18618 -0.62765,0.21867 -1.39454,1.99872992 -1.63439,3.79363992 -0.20027,1.49875 -0.29231,1.69132 -1.12998,2.3643 -0.50157,0.40296 -1.14283,1.07802 -1.42503,1.5001305 -0.48057,0.71884 -1.78272,1.85209 -2.12811,1.85209 -0.0851,0 -0.2073,-0.15117 -0.27154,-0.33593 z m 24.47534,-1.8596405 c 0.005,-0.57832 0.35065,-1.31916 0.49527,-1.06206 0.0774,0.13762 -0.003,0.50577 -0.1787,0.81811 -0.17571,0.3123405 -0.31816,0.4221205 -0.31657,0.24395 z m -65.247,-7.43305992 c 0.12992,-0.0932 0.34252,-0.0932 0.47244,0 0.12992,0.0932 0.0236,0.16944 -0.23622,0.16944 -0.25984,0 -0.36614,-0.0763 -0.23622,-0.16944 z m 3.96851,-0.0146 c 0.23385,-0.0801 0.61653,-0.0801 0.85039,0 0.23386,0.0801 0.0425,0.14559 -0.4252,0.14559 -0.46771,0 -0.65905,-0.0655 -0.42519,-0.14559 z m 4.25196,-0.0134 c 1.01339,-0.0604 2.67166,-0.0604 3.68504,0 1.01339,0.0604 0.18426,0.10983 -1.84252,0.10983 -2.02677,0 -2.8559,-0.0494 -1.84252,-0.10983 z m 7.5495,6.7e-4 c 0.90419,-0.0614 2.4349,-0.0617 3.40158,-6.7e-4 0.96667,0.0611 0.22688,0.11137 -1.64399,0.11172 -1.87087,3.4e-4 -2.66178,-0.0496 -1.75759,-0.11108 z"
       id="path897" />
    <text
       xml:space="preserve"
       id="text899"
       style="font-style:normal;font-variant:normal;font-weight:normal;font-stretch:normal;font-size:40px;line-height:1.25;font-family:FreeSerif;-inkscape-font-specification:FreeSerif;white-space:pre;shape-inside:url(#rect901);fill:#80b3ff;fill-opacity:1;stroke:none;"
       transform="matrix(0.18897637,0,0,0.33593411,-1.8016588,-3.0422374)"><tspan
         x="237.75977"
         y="163.59961"><tspan
           style="font-style:normal;font-variant:normal;font-weight:normal;font-stretch:normal;font-family:FreeSerif;-inkscape-font-specification:FreeSerif;fill:#80b3ff">Naira Truco</tspan></tspan></text>
  </g>
</svg>
